<?xml version="1.0" encoding="UTF-8" standalone="no"?>
<!-- Created with Inkscape (http://www.inkscape.org/) -->

<svg
   xmlns:dc="http://purl.org/dc/elements/1.1/"
   xmlns:cc="http://creativecommons.org/ns#"
   xmlns:rdf="http://www.w3.org/1999/02/22-rdf-syntax-ns#"
   xmlns:svg="http://www.w3.org/2000/svg"
   xmlns="http://www.w3.org/2000/svg"
   xmlns:sodipodi="http://sodipodi.sourceforge.net/DTD/sodipodi-0.dtd"
   xmlns:inkscape="http://www.inkscape.org/namespaces/inkscape"
   width="122mm"
   height="120mm"
   viewBox="0 0 122 120"
   version="1.1"
   id="svg69"
   inkscape:version="0.92.4 (5da689c313, 2019-01-14)"
   sodipodi:docname="teamwheel _logo.svg">
  <defs
     id="defs63" />
  <sodipodi:namedview
     id="base"
     pagecolor="#ffffff"
     bordercolor="#666666"
     borderopacity="1.0"
     inkscape:pageopacity="0.0"
     inkscape:pageshadow="2"
     inkscape:zoom="0.9899495"
     inkscape:cx="350.02896"
     inkscape:cy="250.10495"
     inkscape:document-units="mm"
     inkscape:current-layer="layer7"
     showgrid="false"
     inkscape:window-width="2560"
     inkscape:window-height="1377"
     inkscape:window-x="-8"
     inkscape:window-y="-8"
     inkscape:window-maximized="1" />
  <metadata
     id="metadata66">
    <rdf:RDF>
      <cc:Work
         rdf:about="">
        <dc:format>image/svg+xml</dc:format>
        <dc:type
           rdf:resource="http://purl.org/dc/dcmitype/StillImage" />
        <dc:title></dc:title>
      </cc:Work>
    </rdf:RDF>
  </metadata>
  <g
     inkscape:label="Ebene 1"
     inkscape:groupmode="layer"
     id="layer1"
     transform="translate(0,-177)">
    <g
       inkscape:groupmode="layer"
       id="layer3"
       inkscape:label="Titel" />
    <g
       inkscape:groupmode="layer"
       id="layer4"
       inkscape:label="Team">
      <g
         inkscape:groupmode="layer"
         id="layer2"
         inkscape:label="Team1" />
      <g
         inkscape:groupmode="layer"
         id="layer6"
         inkscape:label="Team 3" />
      <g
         inkscape:groupmode="layer"
         id="layer7"
         inkscape:label="Team 2">
        <g
           id="g995"
           transform="matrix(2.0468633,0,0,2.0827184,-6.8436241,178.31202)">
          <g
             transform="matrix(0.22913589,0.13229166,-0.13229166,0.22913589,48.094008,41.801614)"
             id="g877">
            <g
               id="g844"
               transform="translate(-4.8451123,-3.5355339)">
              <path
                 sodipodi:nodetypes="ccsccscccccscscccscscsccccscccccccccsccccc"
                 inkscape:connector-curvature="0"
                 id="path42-5-9-4"
                 d="m -86.006506,-18.895022 c 1.739429,1.75063 2.423511,2.96141 2.578486,4.5637 0.151356,1.56519 -0.955728,3.91043 -2.56938,5.4430503 -1.567281,1.48856 -5.319576,3.85561 -7.838771,4.94489 -1.007237,0.43553 -3.139283,1.36815 -4.737853,2.0725 -1.598566,0.70434 -4.694606,1.99582997 -6.880066,2.87000997 -4.7266,1.89058003 -10.44739,4.38805403 -14.69583,6.41555903 -1.69505,0.80894 -3.92433,1.851748 -4.95396,2.31734 -1.02961,0.4655957 -2.72146,1.2713887 -3.75967,1.7906317 -2.5125,1.256602 -6.97169,3.191139 -9.0101,3.908847 -0.90499,0.318622 -2.29541,0.930494 -3.08983,1.359693 -0.79442,0.429177 -2.89414,1.334457 -4.66599,2.011694 -1.77188,0.677239 -3.86983,1.491493 -4.66216,1.809461 -5.15226,2.067644 -7.74496,2.931402 -13.08742,4.360106 -6.65824,1.780581 -9.67164,2.106563 -11.62443,1.257491 -1.46646,-0.637609 -1.80576,-1.253455 -1.38256,-2.509512 0.33982,-1.008567 2.80993,-3.873129 4.01974,-4.661598 0.45312,-0.295329 3.69669,-2.45545 7.20794,-4.800255 3.51124,-2.344808 6.74693,-4.4697927 7.19043,-4.7221767 1.27665,-0.726508 4.83415,-3.282524 8.55914,-6.149621 10.26101,-7.89787 13.89309,-15.2039003 10.91639,-21.9586903 -2.52453,-5.72877 -8.48306,-11.23782 -20.56947,-19.01789 -12.96789,-8.34751 -15.5748,-10.27524 -17.09561,-12.64181 -1.06188,-1.6524 -0.57252,-3.13992 1.25124,-3.80339 2.42644,-0.88273 7.20683,-0.15148 14.60984,2.23485 2.05555,0.66257 4.24026,1.3413 4.85495,1.50823 1.83328,0.49794 13.31011,5.15067 19.45911,7.88878 10.01221,4.45838 11.48724,5.12835 16.97669,7.71111 2.95628,1.39092 5.9096,2.7549 6.56292,3.03109 3.9426,1.6667 10.86506,4.53237 13.567146,5.61634 1.7323,0.69492 4.994603,2.24375 7.249554,3.44185 3.359931,1.78517 4.374185,2.45438 5.619513,3.7077 z m -62.564384,-3.88714 c 1.93882,2.0579 2.62498,3.25325 3.23139,5.62953 0.59315,2.32425 0.52112,4.28546 -0.26179,7.12729 -0.6676,2.4233303 -1.19781,3.3423303 -2.97648,5.1600003 -4.02811,4.11516997 -8.71988,5.25913997 -14.0217,3.41887 -3.10101,-1.07636 -5.11193,-2.7254 -6.8724,-5.63558 -1.59408,-2.63519 -2.06453,-4.6460703 -1.85197,-7.9162703 0.48845,-7.5148 7.81496,-13.18253 15.30244,-11.83786 2.32963,0.41837 5.80912,2.31168 7.45086,4.05423 z"
                 style="fill:#d624c6;fill-opacity:1;stroke-width:0.31999999" />
              <path
                 sodipodi:nodetypes="ccsccscccccscscccscscsccccscccccccccsccccc"
                 inkscape:connector-curvature="0"
                 id="path42-5-9-4-1-3"
                 d="m -54.991664,-18.569672 c -1.73282,1.75716 -2.41236,2.9705 -2.5613,4.57337 -0.14546,1.56574 0.97042,3.9068 2.58983,5.4333603 1.5729,1.48262 5.33403,3.83558 7.8573,4.91537 1.00887,0.43174 3.1444,1.35634 4.7456,2.05467 1.60122,0.69831997 4.70209,1.97817997 6.89083,2.84413 4.73369,1.8728 10.46382,4.348751 14.71986,6.360261 1.69806,0.802567 3.93124,1.836985 4.96261,2.298704 1.03137,0.4617157 2.72625,1.2611477 3.76638,1.7764917 2.5172104,1.247137 6.9836404,3.164901 9.0247303,3.874944 0.9062,0.315207 2.29888005,0.921852 3.09493005,1.348051 0.79603,0.426176 2.89913995,1.323569 4.67353005,1.994141 1.7743999,0.670576 3.8754099,1.476929 4.6689199,1.791929 5.1599997,2.048235 7.7559297,2.902241 13.1037197,4.310871 6.664875,1.755519 9.679485,2.070172 11.629085,1.213785 1.46406,-0.643126 1.80103,-1.260239 1.37309,-2.514702 -0.34359,-1.007302 -2.82444,-3.862573 -4.03724,-4.646464 -0.45423,-0.293615 -3.70588,-2.441522 -7.22591,-4.773125 -3.520035,-2.331571 -6.763695,-4.4443907 -7.208145,-4.6950947 -1.27936,-0.72171 -4.84646,-3.26433 -8.5821997,-6.117402 -10.29064,-7.85924 -13.9501399,-15.1515603 -10.99884,-21.9175103 2.50297005,-5.7382 8.44072,-11.26963 20.4978097,-19.0951 12.936415,-8.3962 15.536065,-10.3337 17.047965,-12.70598 1.05565,-1.65638 0.56069,-3.14204 -1.26555,-3.79865 -2.42973,-0.87361 -7.20733,-0.1244 -14.601315,2.28975 -2.05305,0.6703 -4.23519,1.35725 -4.84924,1.52649 -1.8314,0.50482 -13.2906697,5.20065 -19.4293296,7.96186 -9.9953904,4.49599 -11.4678904,5.17151 -16.9475804,7.77489 -2.95103,1.40202 -5.8992,2.7771 -6.55149,3.05574 -3.93631,1.68153 -10.84794,4.57319 -13.54595,5.66731 -1.72966,0.70144 -4.98613,2.26252 -7.23655,3.46909 -3.35319,1.79779 -4.36492,2.47081 -5.60554,3.7288 z m 62.5493803,-4.12233 c -1.93111,2.06515 -2.6127499,3.26311 -3.2102399,5.64164 -0.58441,2.32646 -0.50499,4.28739 0.28857,7.1262603 0.67673,2.42082 1.2103899,3.33781 2.9958699,5.14876 4.0435497,4.10000997 8.7395897,5.22632997 14.0344597,3.36614 3.096955,-1.08801 5.101645,-2.7446 6.851185,-5.66139 1.58415,-2.64117 2.04703,-4.6537903 1.82218,-7.9231703 -0.5167,-7.51292 -7.864465,-13.15304 -15.346845,-11.78026 -2.32803,0.42714 -5.8003797,2.33352 -7.4355597,4.08222 z"
                 style="fill:#f83e2e;fill-opacity:1;stroke-width:0.31999999" />
            </g>
          </g>
          <g
             id="g872"
             transform="matrix(-0.22913589,0.13229167,-0.13229167,-0.22913589,28.704724,14.083604)">
            <path
               sodipodi:nodetypes="ccsccscccccscscccscscsccccscccccccccsccccc"
               inkscape:connector-curvature="0"
               id="path42-5-9-4-7"
               d="m 27.458428,-48.327332 c -1.74454,-1.74554 -2.43217,-2.9543 -2.59181,-4.55615 -0.15593,-1.56474 0.94429,-3.91319 2.55346,-5.45053 1.56288,-1.49316 5.3083,-3.87115 7.82427,-4.96777 1.00597,-0.43848 3.13527,-1.37732 4.73178,-2.08633 1.5965,-0.70901 4.68875,-2.00956 6.87168,-2.89011 4.72104,-1.9044 10.4345,-4.41859 14.67701,-6.45849 1.69266,-0.8139 3.9189,-1.86321 4.94716,-2.33181 1.02826,-0.4686 2.71773,-1.27934 3.7544,-1.80162 2.50884,-1.26393 6.962344,-3.21149 8.998634,-3.93516 0.904062,-0.32127 2.292682,-0.9372 3.085852,-1.36872 0.79317,-0.43149 2.89022,-1.34291 4.66009,-2.02532 1.76989,-0.68242 3.86547,-1.5028 4.65684,-1.82308 5.146223,-2.08269 7.736383,-2.95403 13.074646,-4.39834 6.65299,-1.80003 9.66543,-2.13482 11.6207,-1.29146 1.46833,0.63333 1.80942,1.24817 1.38988,2.50546 -0.33686,1.00956 -2.7986,3.88133 -4.00609,4.67334 -0.45227,0.29664 -3.6895,2.46623 -7.19387,4.8213 -3.50439,2.35504 -6.733853,4.48949 -7.176603,4.74316 -1.27453,0.73024 -4.824543,3.29664 -8.541153,6.17461 -10.23788,7.92783 -13.848586,15.24444 -10.85216,21.99051 2.54128,5.72135 8.51586,11.21297 20.624976,18.95769 12.99224,8.309569 15.60478,10.229669 17.13249,12.591779 1.0667,1.64929 0.58168,3.13823 -1.24012,3.80703 -2.42386,0.889829 -7.20636,0.17254 -14.61631,-2.19213 -2.057493,-0.65657 -4.244163,-1.32891 -4.859333,-1.49405 -1.834733,-0.49256 -13.325123,-5.111729 -19.482105,-7.831859 -10.025194,-4.42909 -11.502174,-5.09476 -16.999124,-7.66146 -2.96035,-1.38227 -5.91764,-2.73762 -6.57176,-3.0119 -3.94747,-1.65517 -10.87828,-4.50059 -13.58352,-5.57666 -1.73431,-0.68986 -5.00114,-2.22914 -7.25958,-3.42065 -3.36512,-1.77533 -4.38133,-2.44158 -5.63031,-3.69127 z m 62.575486,3.70426 c -1.94486,-2.05219 -2.63449,-3.24555 -3.24785,-5.62006 -0.59994,-2.3225 -0.53363,-4.28392 0.24097,-7.12802 0.66051,-2.42527 1.18803,-3.34582 2.96137,-5.16867 4.01606,-4.12693 8.704483,-5.28461 14.011666,-3.45984 3.10415,1.06729 5.11987,2.71044 6.88885,5.61547 1.60177,2.63052 2.07809,4.64002 1.87509,7.91082 -0.46649,7.51621 -7.7764,13.20531 -15.267783,11.88254 -2.330853,-0.41157 -5.815853,-2.2947 -7.462673,-4.03244 z"
               style="fill:#7f44ff;fill-opacity:1;stroke-width:0.31999999" />
            <path
               sodipodi:nodetypes="ccsccscccccscscccscscsccccscccccccccsccccc"
               inkscape:connector-curvature="0"
               id="path42-5-9-4-7-3"
               d="m -4.5007284,-48.327334 c 1.74455,-1.74554 2.4321798,-2.9543 2.5918198,-4.55615 0.15593,-1.56474 -0.9442898,-3.91319 -2.5534598,-5.45053 -1.56288,-1.49316 -5.3083005,-3.87115 -7.8242706,-4.96777 -1.00598,-0.43848 -3.13528,-1.37732 -4.73179,-2.08633 -1.5965,-0.70901 -4.68875,-2.00956 -6.871671,-2.89011 -4.721049,-1.9044 -10.434509,-4.41859 -14.677009,-6.45849 -1.69267,-0.8139 -3.918899,-1.86321 -4.947178,-2.33181 -1.02825,-0.4686 -2.71772,-1.27933 -3.7544,-1.80162 -2.50883,-1.26393 -6.96235,-3.21148 -8.99864,-3.93516 -0.90406,-0.32127 -2.29268,-0.9372 -3.08585,-1.36872 -0.79317,-0.43149 -2.89022,-1.34291 -4.66009,-2.02531 -1.76989,-0.68243 -3.86546,-1.5028 -4.65683,-1.82309 -5.14622,-2.08269 -7.73638,-2.95403 -13.07464,-4.39834 -6.65299,-1.80002 -9.66543,-2.13482 -11.6207,-1.29146 -1.46833,0.63333 -1.80942,1.24817 -1.38988,2.50547 0.33686,1.00955 2.7986,3.88132 4.00609,4.67333 0.45227,0.29664 3.6895,2.46623 7.19387,4.8213 3.50439,2.35505 6.73385,4.4895 7.1766,4.74316 1.27453,0.73025 4.82454,3.29664 8.54115,6.17461 10.23787,7.92783 13.84859,15.24445 10.85215,21.99052 -2.54128,5.72134 -8.51586,11.21297 -20.62496,18.95769 -12.99224,8.309567 -15.60478,10.229667 -17.13249,12.591777 -1.0667,1.64929 -0.58168,3.138232 1.24012,3.807032 2.42386,0.889829 7.20636,0.17254 14.61631,-2.192132 2.05749,-0.65657 4.24416,-1.32891 4.85933,-1.49405 1.83473,-0.49256 13.32511,-5.111727 19.48209,-7.831857 10.0252,-4.42909 11.50218,-5.09476 16.999148,-7.66146 2.96034,-1.38227 5.91763,-2.73763 6.57176,-3.0119 3.94746,-1.65517 10.87827,-4.50059 13.58351,-5.57666 1.73432,-0.68986 5.00115,-2.22914 7.25958,-3.42065 3.3651301,-1.77534 4.3813306,-2.44159 5.6303206,-3.69128 z m -62.5754886,3.70426 c 1.94485,-2.05219 2.63448,-3.24555 3.24784,-5.62006 0.59994,-2.3225 0.53363,-4.28391 -0.24097,-7.12802 -0.66051,-2.42527 -1.18803,-3.34582 -2.96136,-5.16867 -4.01606,-4.12693 -8.70448,-5.28461 -14.01166,-3.45983 -3.10415,1.06728 -5.11987,2.71043 -6.88885,5.61546 -1.60177,2.63053 -2.07809,4.64002 -1.87509,7.91082 0.46649,7.51622 7.7764,13.20531 15.26778,11.88254 2.33085,-0.41156 5.81585,-2.29469 7.46267,-4.03244 z"
               style="fill:#f79b25;fill-opacity:1;stroke-width:0.31999999" />
          </g>
          <g
             id="g40"
             transform="matrix(0,0.26458333,-0.26458333,0,82.474929,27.875032)">
            <g
               transform="rotate(-180,22.988557,-16.839644)"
               id="g836">
              <g
                 transform="translate(33.84011,-83.337585)"
                 id="g868">
                <path
                   sodipodi:nodetypes="ccsccscccccscscccscscsccccscccccccccsccccc"
                   inkscape:connector-curvature="0"
                   id="path42-5-9-4-7-2"
                   d="m 26.659731,-131.50628 c -1.74454,-1.74554 -2.43217,-2.9543 -2.59181,-4.55615 -0.15593,-1.56474 0.94429,-3.91319 2.55346,-5.45053 1.56288,-1.49316 5.3083,-3.87115 7.82427,-4.96777 1.00597,-0.43848 3.13527,-1.37732 4.73178,-2.08633 1.5965,-0.70901 4.68875,-2.00956 6.87168,-2.89011 4.72104,-1.9044 10.4345,-4.41859 14.67701,-6.45849 1.69266,-0.8139 3.9189,-1.86321 4.94716,-2.33181 1.02826,-0.4686 2.71773,-1.27934 3.7544,-1.80162 2.50884,-1.26393 6.962344,-3.21149 8.998634,-3.93516 0.904062,-0.32127 2.292683,-0.9372 3.085853,-1.36872 0.79317,-0.43149 2.89022,-1.34291 4.66009,-2.02532 1.76989,-0.68242 3.86547,-1.5028 4.65684,-1.82308 5.146223,-2.08269 7.736383,-2.95403 13.074642,-4.39834 6.65299,-1.80003 9.66544,-2.13482 11.62071,-1.29146 1.46833,0.63333 1.80942,1.24817 1.38988,2.50546 -0.33686,1.00956 -2.7986,3.88133 -4.00609,4.67334 -0.45228,0.29664 -3.68951,2.46623 -7.19388,4.8213 -3.50439,2.35504 -6.733849,4.48949 -7.176599,4.74316 -1.27453,0.73024 -4.824543,3.29664 -8.541153,6.17461 -10.237881,7.92783 -13.848587,15.24444 -10.852161,21.99051 2.541281,5.72135 8.515861,11.21297 20.624978,18.95769 12.992245,8.30956 15.604785,10.22966 17.132495,12.59177 1.0667,1.649287 0.58168,3.138227 -1.24012,3.807027 -2.42386,0.88983 -7.20637,0.17255 -14.61632,-2.19213 -2.057489,-0.65657 -4.244159,-1.328907 -4.859329,-1.494047 -1.834733,-0.49256 -13.325123,-5.11172 -19.482106,-7.83185 -10.025194,-4.42909 -11.502174,-5.09476 -16.999124,-7.66146 -2.96035,-1.38227 -5.91764,-2.73762 -6.57176,-3.0119 -3.94747,-1.65517 -10.87828,-4.50059 -13.58352,-5.57666 -1.73431,-0.68986 -5.00114,-2.22914 -7.25958,-3.42065 -3.36512,-1.77533 -4.38133,-2.44158 -5.63031,-3.69127 z m 62.575487,3.70426 c -1.94486,-2.05219 -2.63449,-3.24555 -3.24785,-5.62006 -0.59994,-2.3225 -0.53363,-4.28392 0.24097,-7.12802 0.66051,-2.42527 1.18803,-3.34582 2.96137,-5.16867 4.01606,-4.12693 8.704483,-5.28461 14.011662,-3.45984 3.10415,1.06729 5.11987,2.71044 6.88885,5.61547 1.60177,2.63052 2.07809,4.64002 1.87509,7.91082 -0.46649,7.51621 -7.7764,13.20531 -15.267779,11.88254 -2.330853,-0.41157 -5.815853,-2.2947 -7.462673,-4.03244 z"
                   style="fill:#2c85ff;fill-opacity:1;stroke-width:0.31999999" />
                <path
                   sodipodi:nodetypes="ccsccscccccscscccscscsccccscccccccccsccccc"
                   inkscape:connector-curvature="0"
                   id="path42-5-9-4-7-3-0"
                   d="m -5.2994268,-131.50629 c 1.74455,-1.74554 2.43218,-2.9543 2.59182,-4.55615 0.15593,-1.56474 -0.94429,-3.91319 -2.55346,-5.45053 -1.56288,-1.49316 -5.3083002,-3.87115 -7.8242702,-4.96777 -1.00598,-0.43848 -3.13528,-1.37732 -4.73179,-2.08633 -1.5965,-0.70901 -4.68875,-2.00956 -6.87167,-2.89011 -4.72105,-1.9044 -10.43451,-4.41859 -14.67701,-6.45849 -1.69267,-0.8139 -3.9189,-1.86321 -4.94717,-2.33181 -1.02825,-0.4686 -2.71772,-1.27933 -3.7544,-1.80162 -2.50883,-1.26393 -6.96235,-3.21148 -8.99864,-3.93516 -0.90406,-0.32127 -2.29268,-0.9372 -3.08585,-1.36872 -0.79317,-0.43149 -2.89022,-1.34291 -4.66009,-2.02531 -1.76989,-0.68243 -3.86546,-1.5028 -4.65683,-1.82309 -5.14622,-2.08269 -7.73638,-2.95403 -13.07465,-4.39834 -6.65299,-1.80002 -9.66543,-2.13482 -11.6207,-1.29146 -1.46833,0.63333 -1.80942,1.24817 -1.38988,2.50547 0.33686,1.00955 2.7986,3.88132 4.00609,4.67333 0.45227,0.29664 3.6895,2.46623 7.19387,4.8213 3.50439,2.35505 6.73386,4.4895 7.17661,4.74316 1.27453,0.73025 4.82454,3.29664 8.54115,6.17461 10.23787,7.92783 13.84859,15.24445 10.85215,21.99052 -2.54128,5.72134 -8.51586,11.21297 -20.62496,18.95769 -12.99225,8.30957 -15.60479,10.22967 -17.1325,12.59178 -1.0667,1.649287 -0.58168,3.138227 1.24012,3.807027 2.42386,0.88983 7.20636,0.17254 14.61631,-2.19213 2.0575,-0.65657 4.24417,-1.328907 4.85934,-1.494047 1.83473,-0.49256 13.32511,-5.11173 19.48209,-7.83186 10.0252,-4.42909 11.50218,-5.09476 16.99914,-7.66146 2.96034,-1.38227 5.91763,-2.73763 6.57176,-3.0119 3.94746,-1.65517 10.87827,-4.50059 13.58351,-5.57666 1.73432,-0.68986 5.00115,-2.22914 7.25958,-3.42065 3.3651302,-1.77534 4.3813302,-2.44159 5.6303202,-3.69128 z m -62.5754802,3.70426 c 1.94485,-2.05219 2.63448,-3.24555 3.24784,-5.62006 0.59994,-2.3225 0.53363,-4.28391 -0.24097,-7.12802 -0.66051,-2.42527 -1.18803,-3.34582 -2.96136,-5.16867 -4.01606,-4.12693 -8.70448,-5.28461 -14.01167,-3.45983 -3.10415,1.06728 -5.11987,2.71043 -6.88885,5.61546 -1.60177,2.63053 -2.07809,4.64002 -1.87509,7.91082 0.46649,7.51622 7.7764,13.20531 15.26779,11.88254 2.33085,-0.41156 5.81585,-2.29469 7.46267,-4.03244 z"
                   style="fill:#47c51e;fill-opacity:1;stroke-width:0.31999999" />
              </g>
            </g>
          </g>
        </g>
      </g>
    </g>
  </g>
</svg>
