<?xml version="1.0" encoding="UTF-8" standalone="no"?>
<!-- Created with Inkscape (http://www.inkscape.org/) -->

<svg
   xmlns:dc="http://purl.org/dc/elements/1.1/"
   xmlns:cc="http://creativecommons.org/ns#"
   xmlns:rdf="http://www.w3.org/1999/02/22-rdf-syntax-ns#"
   xmlns:svg="http://www.w3.org/2000/svg"
   xmlns="http://www.w3.org/2000/svg"
   xmlns:sodipodi="http://sodipodi.sourceforge.net/DTD/sodipodi-0.dtd"
   xmlns:inkscape="http://www.inkscape.org/namespaces/inkscape"
   width="210mm"
   height="297mm"
   viewBox="0 0 210 297"
   version="1.1"
   id="svg69"
   inkscape:version="0.92.4 (5da689c313, 2019-01-14)"
   sodipodi:docname="Teamwheel.svg">
  <defs
     id="defs63" />
  <sodipodi:namedview
     id="base"
     pagecolor="#ffffff"
     bordercolor="#666666"
     borderopacity="1.0"
     inkscape:pageopacity="0.0"
     inkscape:pageshadow="2"
     inkscape:zoom="1.979899"
     inkscape:cx="161.94484"
     inkscape:cy="797.33658"
     inkscape:document-units="mm"
     inkscape:current-layer="g40"
     showgrid="false"
     inkscape:window-width="1278"
     inkscape:window-height="1368"
     inkscape:window-x="1273"
     inkscape:window-y="0"
     inkscape:window-maximized="0" />
  <metadata
     id="metadata66">
    <rdf:RDF>
      <cc:Work
         rdf:about="">
        <dc:format>image/svg+xml</dc:format>
        <dc:type
           rdf:resource="http://purl.org/dc/dcmitype/StillImage" />
        <dc:title />
      </cc:Work>
    </rdf:RDF>
  </metadata>
  <g
     inkscape:label="Ebene 1"
     inkscape:groupmode="layer"
     id="layer1">
    <g
       transform="matrix(0.26458333,0,0,0.26458333,49.785713,29.341904)"
       id="g40">
      <path
         style="fill:#3b95f8;fill-opacity:1;stroke-width:0.31999999"
         d="m -147.13189,162.90127 c -0.30828,-0.19562 -0.38716,-1.39725 -0.32,-4.87507 l 0.0891,-4.61549 2.63114,-0.0928 c 3.27982,-0.11568 4.38314,0.35869 4.90786,2.11005 0.36921,1.23229 0.0452,2.47302 -1.03265,3.95376 -0.31838,0.43741 -0.23489,0.72982 0.47357,1.65865 1.00601,1.31895 1.06503,1.68669 0.30008,1.86957 -1.0285,0.24592 -1.58548,-0.0787 -2.62947,-1.53241 -0.84267,-1.17341 -1.19453,-1.42468 -1.8834,-1.3449 -0.73706,0.0853 -0.86062,0.26384 -0.95097,1.37392 -0.12516,1.53779 -0.68524,2.06589 -1.58528,1.49472 z m 4.33262,-5.05315 c 0.86735,-0.23242 1.27533,-1.52407 0.70026,-2.21696 -0.28366,-0.34183 -0.85434,-0.46224 -1.87573,-0.39587 -1.34735,0.0876 -1.47657,0.16998 -1.57189,1.00246 -0.0571,0.49885 -0.0256,1.11085 0.07,1.36 0.18038,0.47005 1.42363,0.5863 2.67741,0.25037 z m 172.876498,4.76208 c -0.69654,-0.34794 -1.15873,-0.83226 -1.22244,-1.28093 -0.13693,-0.96422 0.61352,-1.20442 1.81767,-0.58173 1.09906,0.56835 2.21499,0.63984 2.92477,0.18739 0.76783,-0.4895 0.005,-1.33382 -1.72958,-1.91404 -2.97025,-0.99364 -3.86281,-2.85936 -2.27222,-4.74967 0.96948,-1.15219 2.50862,-1.50192 4.1664,-0.94672 2.47761,0.82973 2.31677,2.62746 -0.16846,1.88285 -1.63713,-0.4905 -2.62879,-0.21939 -2.4948,0.68198 0.0726,0.4882 0.56401,0.81911 1.85866,1.25156 1.85141,0.61846 3.2,1.81219 3.2,2.8326 0,2.64592 -3.24477,4.05309 -6.08,2.63671 z M -132.13283,162.556 c -0.36752,-0.23267 -0.14161,-1.00938 1.23186,-4.2351 0.92505,-2.17261 1.8869,-4.27418 2.13744,-4.67018 0.49884,-0.78848 1.76254,-0.96518 2.28844,-0.32 0.42499,0.52138 3.91232,8.42032 3.91232,8.86157 0,0.18614 -0.41453,0.33843 -0.92118,0.33843 -0.72183,0 -1.00723,-0.20774 -1.31882,-0.96 -0.38712,-0.93459 -0.45568,-0.96 -2.5906,-0.96 -2.09246,0 -2.2148,0.0422 -2.66935,0.92122 -0.26201,0.50668 -0.70948,1.01068 -0.99439,1.12 -0.62676,0.24051 -0.53073,0.24908 -1.07572,-0.0959 z m 5.73006,-4.20119 c 0,-0.40394 -0.91658,-2.2241 -1.12,-2.2241 -0.20342,0 -1.12,1.82016 -1.12,2.2241 0,0.18476 0.504,0.3359 1.12,0.3359 0.616,0 1.12,-0.15114 1.12,-0.3359 z m 11.584,4.1119 c -0.44914,-0.44915 -0.53928,-8.47558 -0.10291,-9.164 0.60754,-0.9585 1.78993,-0.20864 3.9547,2.508 1.19209,1.496 2.30496,2.76608 2.47304,2.8224 0.17433,0.0584 0.34545,-1.10995 0.39839,-2.72 0.0863,-2.62362 0.14196,-2.82941 0.79113,-2.92182 1.06843,-0.1521 1.28733,0.6743 1.36041,5.1359 l 0.0668,4.07648 -0.82147,0.3743 c -1.0222,0.46573 -1.40712,0.15156 -4.14225,-3.38118 l -1.96182,-2.53392 -0.094,2.67798 c -0.0517,1.47287 -0.24932,2.86516 -0.43918,3.09392 -0.43106,0.5194 -0.98349,0.5313 -1.48284,0.032 z m 17.599718,-0.0192 c -0.2906,-0.35014 -0.37747,-1.716 -0.31298,-4.9207 l 0.0893,-4.4361 2.56,-0.086 c 3.00306,-0.10083 4.37601,0.43037 5.51362,2.13328 1.41313,2.11533 0.72273,5.46941 -1.39526,6.7784 -1.45816,0.90121 -5.84772,1.26233 -6.45464,0.53104 z m 5.46832,-2.29101 c 0.31462,-0.23865 0.69461,-0.86134 0.84443,-1.38374 0.67224,-2.34394 -0.69818,-4.01735 -3.15868,-3.85703 l -1.45779,0.095 -0.095,2.37005 c -0.0523,1.30352 -0.0208,2.56352 0.07,2.8 0.21914,0.57107 3.03595,0.55305 3.79711,-0.0243 z m 13.66812,2.35213 c -1.91162,-0.80387 -3.20016,-2.72768 -3.20016,-4.77792 0,-3.76422 3.98461,-6.1583 7.35742,-4.42058 3.62009,1.86512 3.91387,6.2114 0.58642,8.67584 -0.99228,0.73492 -3.56481,1.01834 -4.74368,0.52263 z m 3.81529,-2.40634 c 0.83009,-0.69846 0.98455,-1.05376 0.98455,-2.2646 0,-1.16068 -0.17943,-1.61562 -0.93539,-2.37156 -1.18463,-1.18464 -2.5071,-1.22854 -3.81653,-0.12675 -1.23303,1.03754 -1.52969,2.34979 -0.8534,3.77498 0.91186,1.92157 2.98454,2.36473 4.62077,0.98793 z m 11.61543,2.47901 c -0.30828,-0.19561 -0.38716,-1.39725 -0.32,-4.87507 l 0.08912,-4.61552 h 1.28 c 1.27305,0 1.28695,0.0134 2.56,2.47917 0.704,1.36355 1.352,2.47917 1.44,2.47917 0.088,0 0.736,-1.11562 1.44,-2.47917 1.27225,-2.46416 1.28773,-2.47917 2.55686,-2.47917 1.15978,0 1.29568,0.088 1.48214,0.96 0.1129,0.528 0.22232,2.48048 0.24314,4.33885 0.0422,3.76329 -0.36163,4.94083 -1.4634,4.26742 -0.46776,-0.28589 -0.59656,-0.8535 -0.67168,-2.96 -0.0511,-1.43344 -0.19954,-2.60627 -0.32983,-2.60627 -0.13029,0 -0.77128,1.08 -1.42444,2.4 -0.70445,1.42368 -1.38675,2.4 -1.67722,2.4 -0.50112,0 -2.008,-2.13178 -2.71728,-3.84413 -0.66606,-1.608 -0.95829,-1.08048 -0.95829,1.72989 0,2.15386 -0.10024,2.72422 -0.50617,2.88 -0.61086,0.2344 -0.52515,0.2407 -1.02295,-0.0752 z m 28.80912,0.0612 c -0.28839,-0.11901 -0.4,-1.22912 -0.4,-3.9784 v -3.81335 h -1.08082 c -1.18951,0 -1.97626,-0.67699 -1.68098,-1.44646 0.15863,-0.41338 0.78198,-0.47975 3.7958,-0.40407 l 3.606,0.0905 v 0.8 c 0,0.69331 -0.15988,0.81325 -1.19873,0.89923 -1.44352,0.11952 -1.49171,0.2608 -1.60188,4.69706 -0.0811,3.26486 -0.2543,3.64457 -1.43939,3.15545 z m 12.47088,-0.0612 c -0.30828,-0.19561 -0.38716,-1.39725 -0.32,-4.87507 l 0.08912,-4.61552 h 3.36 3.36 v 0.8 c 0,0.768 -0.096,0.8064 -2.4,0.96 -2.304,0.1536 -2.4,0.192 -2.4,0.96 0,0.7223 0.13984,0.80819 1.44,0.88438 2.44881,0.14352 2.9331,0.337 2.82077,1.12692 -0.0894,0.6287 -0.33555,0.72675 -2.18077,0.8687 -1.89464,0.14573 -2.08962,0.22806 -2.188,0.92381 -0.14894,1.05341 0.40519,1.3056 2.88133,1.31129 2.22838,0.005 2.68214,0.29559 2.13217,1.3649 -0.24305,0.47258 -0.74839,0.55923 -3.23676,0.5551 -1.62181,-0.003 -3.13285,-0.12172 -3.35786,-0.26454 z m 14.0891202,0.0575 c -0.60946,-0.24592 -0.53372,-0.51088 1.3895,-4.86068 2.04687,-4.6295 2.1894,-4.84739 3.1705,-4.84739 0.3969,0 0.86506,0.18 1.04036,0.4 0.68533005,0.8601 3.94279,8.67811 3.78603,9.08663 -0.32008,0.83411 -1.46793999,0.46732 -2.14878995,-0.68663 -0.64535,-1.09379 -0.70857,-1.12 -2.70099005,-1.12 -1.92412,0 -2.06727,0.0524 -2.51656,0.92122 -0.37813,0.73123 -1.24278,1.44531 -1.56622,1.29353 -0.0296,-0.0138 -0.23383,-0.0979 -0.45383,-0.18668 z m 5.68,-4.284 c 0,-0.40394 -0.91658,-2.2241 -1.12,-2.2241 -0.20342,0 -1.12,1.82016 -1.12,2.2241 0,0.18476 0.504,0.3359 1.12,0.3359 0.616,0 1.12,-0.15114 1.12,-0.3359 z m 11.584,4.1119 c -0.25958,-0.25958 -0.384,-1.74221 -0.384,-4.576 0,-4.61872 0.12525,-4.96 1.8204298,-4.96 0.99494,0 1.12273,0.13984 2.33957,2.56 0.70793,1.408 1.35546,2.56 1.43897,2.56 0.0835,0 0.60206,-0.9 1.15235,-2 1.27914,-2.5569 1.79068,-3.12 2.83428,-3.12 1.46975,0 1.6144,0.44662 1.6144,4.98483 0,3.45706 -0.0913,4.29258 -0.50682,4.63744 -0.36667,0.30429 -0.65427,0.32807 -1.04,0.086 -0.40451,-0.25389 -0.57179,-0.98304 -0.69318,-3.02144 l -0.16,-2.68682 -1.28,2.4 c -0.93867,1.76 -1.45067,2.4 -1.92,2.4 -0.46933,0 -0.98133,-0.64 -1.92,-2.4 l -1.28,-2.4 -0.16,2.65251 c -0.11314,1.87571 -0.30057,2.74112 -0.64,2.95511 -0.62628,0.39478 -0.7573,0.38707 -1.2159998,-0.0716 z M 25.597228,147.06712 c -2.40384,-0.56077 -3.68631,-1.29597 -5.48881,-3.14653 -3.76548,-3.86589 -3.83482,-11.59034 -0.14192,-15.81187 4.66283,-5.33034 13.35561,-4.98489 17.36838,0.6902 1.65123,2.33527 2.4097,4.62839 2.28037,6.89437 l -0.098,1.71741 -7.49293,0.0689 c -4.12112,0.0379 -7.62297,0.19897 -7.78189,0.35789 -0.45032,0.45033 0.50312,2.37814 1.65586,3.34812 0.80313,0.67578 1.36241,0.86506 2.55619,0.86506 1.50406,0 1.66492,-0.0763 4.38132,-2.07901 0.62671,-0.46208 0.87117,-0.43046 3.2,0.41367 1.57442,0.57065 2.55921,1.10944 2.622,1.43449 0.16384,0.84829 -2.42961,3.35613 -4.54132,4.39143 -2.35283,1.1535 -5.77124,1.49692 -8.51923,0.85584 z m 6.90345,-15.17641 c -0.11326,-0.484 -0.70276,-1.348 -1.30999,-1.92 -0.92825,-0.8744 -1.34686,-1.03968 -2.62876,-1.03789 -2.23721,0.003 -4.19779,1.52115 -4.23336,3.27789 -0.0102,0.50544 0.39742,0.56 4.18335,0.56 h 4.19469 z m 18.99108,15.29334 c -3.34403,-0.60396 -6.40449,-3.0168 -7.83129,-6.17414 -0.76808,-1.69968 -0.90641,-2.43066 -0.92333,-4.8792 -0.0265,-3.8399 0.63207,-5.69802 2.8805,-8.12656 2.41735,-2.61104 4.84365,-3.68968 8.29959,-3.68968 2.13165,0 2.89379,0.15219 4.55498,0.90957 3.91193,1.78353 6.51948,5.7124 6.6016,9.94667 l 0.0434,2.24 -7.36,0.0613 c -4.048,0.0337 -7.54,0.0697 -7.76,0.08 -0.54141,0.0253 -0.50458,1.12826 0.0752,2.24935 0.74438,1.43945 2.12528,2.24934 3.83526,2.24934 1.70013,0 2.4816,-0.33126 3.86461,-1.63821 l 0.97504,-0.92141 2.68586,0.9025 c 1.47721,0.49635 2.74006,1.06512 2.8063,1.26387 0.3353,1.00589 -3.2033,4.15863 -5.62762,5.01399 -1.67625,0.59142 -5.25648,0.84915 -7.12009,0.5126 z m 6.50601,-14.60054 c 0.36557,-0.3656 -0.47539,-2.05888 -1.41536,-2.84982 -1.8678,-1.57165 -5.34544,-0.80567 -6.50272,1.43225 -0.27974,0.54096 -0.42224,1.12333 -0.31664,1.29418 0.20343,0.32918 7.91338,0.4447 8.23472,0.12339 z m -236.382488,14.19808 c -0.0716,-0.22598 -0.20064,-6.15475 -0.2867,-13.17504 -0.12453,-10.15879 -0.24372,-12.82227 -0.58391,-13.04889 -0.23509,-0.15661 -1.76,-0.19157 -3.38869,-0.0777 -2.15062,0.15037 -3.0923,0.0983 -3.44,-0.19028 -0.63209,-0.5246 -0.70254,-6.6672 -0.0788,-6.8675 0.22,-0.0707 5.23936,-0.21375 11.15414,-0.318 9.07506,-0.15996 10.81314,-0.11847 11.13198,0.26571 0.24926,0.30034 0.34654,1.52822 0.28586,3.60805 l -0.092,3.15277 -3.61412,0.0906 c -2.71899,0.0682 -3.65621,0.20031 -3.78407,0.53353 -0.0935,0.2436 -0.19513,6.25084 -0.22589,13.3494 l -0.0559,12.90647 -3.44587,0.0909 c -2.5884,0.0683 -3.47827,-0.0115 -3.57608,-0.32 z m 23.66195,0.0914 c -2.72543,-0.65926 -5.57521,-2.90467 -6.84474,-5.39315 -0.85573,-1.67738 -1.32957,-4.75808 -1.10917,-7.21133 0.34838,-3.87776 2.64299,-7.28797 6.07075,-9.02225 1.4957,-0.75676 2.33832,-0.94785 4.67157,-1.0594 2.74587,-0.13128 2.92829,-0.0957 5.14916,1.00433 3.73547,1.85025 6.05346,5.27102 6.49131,9.57953 0.12072,1.188 0.16362,2.18944 0.0953,2.22538 -0.0683,0.036 -3.58019,0.14396 -7.80419,0.24 -7.41981,0.1687 -7.68316,0.19673 -7.77344,0.82736 -0.13898,0.97081 1.21706,2.78643 2.5804,3.45494 1.66001,0.81392 3.45812,0.47709 5.02899,-0.94208 0.66089,-0.59709 1.48012,-1.0856 1.8205,-1.0856 1.20551,0 5.06251,1.49341 5.16103,1.99834 0.24589,1.26003 -3.51604,4.33414 -6.32455,5.16819 -1.76274,0.52345 -5.48097,0.63469 -7.21293,0.21574 z m 6.69383,-14.29651 c 0.80644,-0.30947 0.59099,-1.32259 -0.54482,-2.56198 -1.9093,-2.08343 -5.28415,-1.68426 -6.74135,0.79734 -1.02527,1.74602 -0.66929,1.95888 3.27613,1.95888 1.92713,0 3.73164,-0.0874 4.01004,-0.19424 z m 17.43731,14.15549 c -2.422,-0.86576 -4.31054,-2.86375 -5.78591,-6.12125 -0.98268,-2.16966 -1.04405,-6.87446 -0.1221,-9.35978 1.34828,-3.63452 4.66214,-6.55002 7.95858,-7.00185 2.06842,-0.28351 3.47252,0.0661 5.35574,1.33337 0.90577,0.60954 1.77227,1.10826 1.92556,1.10826 0.15328,0 0.39996,-0.468 0.54818,-1.04 l 0.26949,-1.04 h 3.01966 3.01966 l 0.27627,10.64352 c 0.21902,8.43834 0.19238,10.74458 -0.12862,11.13136 -0.31978,0.38531 -1.01676,0.46864 -3.31626,0.39648 l -2.91139,-0.0914 -0.10282,-1.12 c -0.16018,-1.7449 -0.56052,-1.86304 -1.89766,-0.5601 -0.65973,0.64285 -1.7349,1.39188 -2.38924,1.66448 -1.4288,0.5952 -4.13771,0.62215 -5.71914,0.0569 z m 7.06588,-6.23495 c 1.38504,-0.74281 2.56298,-2.88528 2.56298,-4.66163 0,-2.75433 -2.11414,-4.98467 -4.72497,-4.98467 -1.22859,0 -1.60121,0.17088 -2.64193,1.21162 -4.18448,4.18448 -0.2271,11.13283 4.80392,8.43468 z m 193.727108,6.21562 c -0.1016,-0.26477 -0.0631,-8.01002 0.0856,-17.21165 l 0.27027,-16.73027 h 3.2 3.2 l 0.0768,8 c 0.0422,4.4 -0.0298,12.104 -0.16,17.12 l -0.2368,9.12 -3.12557,0.0917 c -2.54598,0.0747 -3.15984,0.003 -3.3103,-0.38973 z m -177.258578,-0.58419 c -0.0849,-0.22125 -0.11639,-5.22525 -0.07,-11.12 l 0.0845,-10.71773 h 3.2 3.2 l 0.0923,1.12 c 0.16711,2.0271 0.28535,2.08093 1.815741,0.82691 4.048807,-3.31771 7.642587,-3.2054 10.667417,0.33335 l 1.28407,1.50224 1.71022,-1.49924 c 2.288,-2.0057 3.92853,-2.76326 5.984,-2.76326 2.05911,0 3.78616,0.82916 5.14626,2.47072 1.74798,2.1097 1.96188,3.51651 1.86578,12.2712 l -0.0858,7.81808 -2.8508,0.0932 c -1.75587,0.0574 -2.98492,-0.0409 -3.2,-0.25584 -0.22409,-0.224 -0.36709,-2.53225 -0.39915,-6.44288 -0.0601,-7.33587 -0.16364,-7.9934 -1.42548,-9.05516 -1.68669,-1.41927 -4.08176,-0.87965 -5.37368,1.21072 -0.62267,1.00748 -0.67089,1.54576 -0.67089,7.48857 0,5.10035 -0.0912,6.47875 -0.44836,6.77514 -0.287,0.23821 -1.4674,0.33869 -3.28,0.2792 l -2.83163,-0.093 -0.16,-6.88 c -0.16918,-7.27475 -0.25943,-7.7225 -1.80113,-8.93517 -1.05702,-0.83145 -2.2213,-0.84387 -3.54333,-0.0378 -1.972418,1.20266 -2.164008,1.99072 -2.278708,9.37296 l -0.10317,6.64 h -3.18687 c -2.26392,0 -3.23158,-0.11651 -3.34124,-0.40227 z m 61.661538,-0.15773 c -0.16249,-0.308 -0.97485,-3.44 -1.80526,-6.96 -0.8304,-3.52 -2.56505,-10.78509 -3.85476,-16.14465 -1.28971,-5.35955 -2.27391,-9.85955 -2.18711,-10 0.0868,-0.14044 1.52088,-0.25535 3.18685,-0.25535 2.85133,0 3.04419,0.0422 3.2874,0.72 0.1421,0.396 1.32001,5.22218 2.61757,10.72484 1.38714,5.88255 2.49703,9.95999 2.69371,9.89602 0.18398,-0.0598 1.44435,-4.56198 2.80081,-10.00482 1.35647,-5.44282 2.54721,-10.22004 2.6461,-10.61604 0.16625,-0.66575 0.35853,-0.72 2.55213,-0.72 1.98437,0 2.39881,0.0916 2.53422,0.56 0.089,0.308 0.38177,1.496 0.65053,2.64 2.08808,8.88822 4.43933,18.12915 4.67309,18.36627 0.16431,0.16669 0.3802,-0.10067 0.51678,-0.64 0.12902,-0.50944 1.33137,-5.39027 2.6719,-10.84627 l 2.43732,-9.92 2.99713,-0.0927 c 1.64842,-0.051 3.11099,0.0212 3.25016,0.16035 0.13916,0.13916 -0.96551,5.22087 -2.45482,11.29268 -1.48932,6.07182 -3.20449,13.12766 -3.81149,15.67966 -0.60699,2.552 -1.22778,5.072 -1.37951,5.6 l -0.27588,0.96 h -3.47467 -3.47467 l -2.26952,-9.37763 c -1.24824,-5.15767 -2.41028,-9.40567 -2.58231,-9.44 -0.17203,-0.0343 -1.32388,3.96963 -2.55966,8.89763 -1.23579,4.928 -2.34727,9.212 -2.46996,9.52 -0.19166,0.48112 -0.67372,0.56 -3.42187,0.56 -2.72058,0 -3.24295,-0.0837 -3.49421,-0.56 z m 36.9041502,0.17165 c -0.0867,-0.2264 -0.1201898,-7.97165 -0.0744,-17.21165 l 0.0832,-16.8 3.17356,-0.0922 c 2.21335,-0.0643 3.24547,0.0241 3.41125,0.29238 0.13074,0.21153 0.15837,3.36401 0.0614,7.0055 -0.11984,4.50014 -0.0677,6.68804 0.16285,6.83051 0.18653,0.11526 1.03480005,-0.22156 1.88504005,-0.74852 4.42278995,-2.74119 9.35118995,-1.46418 11.34049975,2.93844 0.7429,1.64413 0.7654,1.93376 0.7654,9.85392 v 8.16 h -3.1999998 -3.2 l -0.16,-6.88 c -0.17939,-7.71373 -0.38977,-8.54582 -2.40336,-9.50605 -0.92999,-0.44349 -1.29255,-0.46256 -2.41283999,-0.12691 -1.11489996,0.33405 -1.42424996,0.62637 -2.00430001,1.89398 -0.6077,1.32804 -0.70494,2.24708 -0.85271,8.05898 l -0.16679,6.56 -3.12557,0.0917 c -2.32087,0.0681 -3.16615,-0.0144 -3.28319,-0.32 z M -93.713012,98.681289 c -1.39425,-1.7725 -1.26846,-5.18739 0.43577,-11.83058 2.06627,-8.0544 7.99125,-23.2388 14.23456,-36.48 4.74917,-10.07232 7.57882,-16.33396 9.76111,-21.6 4.23156,-10.21111 4.70112,-11.30318 5.84757,-13.6 1.59378,-3.19301 3.30286,-5.6014202 5.15952,-7.2707202 4.00343,-3.59942 8.03365,-2.31665 11.98741,3.8154702 1.88466,2.92301 2.93853,5.09858 5.31653,10.97525 3.8397,9.48888 5.23006,12.68827 9.03909,20.8 6.88162,14.65514 10.6301,23.38754 14.18944,33.05553 5.32684,14.46893 6.0673,22.94447 2.00455,22.94447 -2.69816,0 -5.38835,-3.31688 -14.98531,-18.47615 -2.9474,-4.65569 -8.09985,-11.29405 -10.96265,-14.12416 -4.93419,-4.87784 -8.52062,-6.63519 -13.01074,-6.37526 -6.96255,0.40305 -13.7763,7.09585 -24.80887,24.36848 -7.68517,12.03193 -9.90977,14.60709 -12.61862,14.60709 -0.63799,0 -1.16297,-0.26736 -1.58936,-0.80942 z m 36.46372,-4.81699 c -6.71861,-1.80673 -10.99627,-8.33473 -9.9394,-15.16816 1.13293,-7.32515 8.33004,-12.55905 15.458,-11.24137 10.7926,1.99512 15.04524,14.65985 7.57488,22.55865 -3.4561,3.65432 -8.40831,5.1108 -13.09348,3.85088 z m -68.368018,-13.39905 c -1.78046,-1.78044 -0.82502,-4.62498 6.23886,-18.57454 5.37968,-10.62363 7.23464,-14.8509 8.84665,-20.16067 0.75693,-2.49324 0.87782,-3.4586 0.90159,-7.19933 0.0258,-4.05366 -0.0258,-4.43356 -0.83573,-6.1619 -1.68625,-3.59828 -5.13001,-6.07415 -10.97683,-7.89175 -4.76931,-1.48263 -10.65447,-2.20435 -23.73932,-2.91126 -6.47937,-0.35004 -12.73741,-0.84143 -13.90675,-1.09196 -4.30785,-0.92295 -5.96166,-2.44115 -4.95616,-4.54972 2.40809,-5.0498102 20.78923,-8.9165202 56.80167,-11.94898015 4.2897,-0.36121 10.409698,-1.00961005 13.599998,-1.44087005 20.02995,-2.70766 23.94932,-2.74021 28.00674,-0.23261 2.08377,1.28783005 2.66689,2.57030005 2.50483,5.50905 -0.21266,3.85643 -2.20223,7.4947202 -8.86413,16.2096202 -6.84401,8.95315 -9.45835,12.50721 -14.08689,19.15038 -11.26199,16.16394 -19.774678,27.09463 -26.879988,34.51516 -6.37081,6.65345 -10.54452,8.88942 -12.65454,6.77938 z m 139.265308,0.17134 c -4.6299998,-2.3605 -13.51450975,-11.82241 -22.8602396,-24.34588 -5.9067604,-7.91518 -6.8637604,-9.2279 -9.5646804,-13.12 -7.0669,-10.18356 -9.43895,-13.46134 -13.8946,-19.2 -8.06328,-10.38513 -10.49924,-14.1387302 -11.61527,-17.8980802 -0.602,-2.02784 -0.63688,-2.93372 -0.17674,-4.59067 0.49172,-1.77064995 1.99419,-3.29283 4.08007,-4.13356 1.65196,-0.66585 2.31001,-0.73192 7.10069,-0.71292 3.18466,0.0126 6.80389,0.23982 9.12,0.57249 9.12337,1.31043 16.1893502,2.13967005 23.52000025,2.76025005 C 33.495408,2.8581788 51.591368,6.4060788 55.624938,11.000059 c 2.68253,3.05521 -0.1479,5.18386 -7.87488,5.92235 -1.88806,0.18045 -7.68083,0.53975 -12.87283,0.79844 -17.46557,0.87022 -24.9528998,2.73031 -29.6279998,7.36055 -3.07245,3.04296 -4.12539,6.87422 -3.3445,12.16931 0.88153,5.97746 2.83327,10.89271 9.8086798,24.70216 6.88608,13.6326 7.80809,16.38565 6.18059,18.45468 -0.82037,1.04294 -2.47457,1.13217 -4.246,0.22904 z M -133.17286,50.423639 c -4.94968,-1.7897 -7.98724,-5.47272 -8.91273,-10.8066 -0.95454,-5.50131 2.18197,-11.44092 7.39739,-14.00846 6.78705,-3.34125 14.74154,-0.62228 18.21819,6.22726 0.91596,1.80459 1.09256,2.52389 1.20692,4.91584 0.28884,6.04147 -2.49202,10.71068 -7.8822,13.23459 -1.80116,0.84338 -2.59063,1.01712 -5.01748,1.10421 -2.40954,0.0865 -3.22796,-0.0225 -5.01009,-0.66684 z m 149.711518,-0.0353 c -5.50874,-1.94405 -8.9343598,-6.70557 -8.9913198,-12.49767 -0.076,-7.73034 5.8703198,-13.72338 13.5686198,-13.67518 5.29264,0.0331 9.72567,2.91928 12.1982,7.9417 1.01853,2.06892 1.08197,2.39112 1.06468,5.40675 -0.0144,2.51617 -0.16899,3.58574 -0.71772,4.96673 -2.68966,6.76907 -10.3047,10.26369 -17.12246,7.85767 z m -94.62143,-57.9812802 c -1.73108,-0.1597 -9.27323,-1.12439 -15.74235,-2.01357 -2.58629,-0.35548 -7.338288,-0.8688798 -10.559998,-1.1408798 -23.81839,-2.01094 -37.02776,-3.75953 -46.97765,-6.21867 -7.47216,-1.84676 -11.25598,-3.53005 -12.49204,-5.55726 -0.79116,-1.29755 -0.78811,-1.85606 0.0157,-2.87794 1.41701,-1.80144 5.67836,-2.57467 17.11634,-3.1058 14.14021,-0.65662 20.08644,-1.37203 25.44649,-3.06153 6.73387,-2.12255 10.59288,-5.46605 11.53244,-9.99189 0.51177,-2.46517 0.22318,-7.62402 -0.60361,-10.79032 -1.1068,-4.23861 -4.32467,-11.66229 -9.03132,-20.83541 -5.06806,-9.87745 -6.70401,-13.81859 -6.70401,-16.15053 0,-3.81862 3.00527,-3.84579 7.93295,-0.0717 4.05469,3.10546 14.23096,14.72133 20.902548,23.85956 1.12448,1.54021 3.49523,4.78021 5.26835,7.2 1.77312,2.41979 4.49958,6.27161 6.0588,8.55961 3.05338,4.48052 8.47347,11.81167 12.53894,16.96 7.07447,8.9588 9.9612,13.8892 10.25181,17.50959 0.0982,1.22315 0.009,2.55543 -0.21642,3.23897 -0.49712,1.50629 -2.46303,3.1697298 -4.57828,3.8738898 -1.68697,0.56159 -7.14827,0.89162 -10.1587,0.6139 z m 40.48,0.066 c -0.176,-0.0747 -1.14736,-0.36616 -2.15857,-0.64764 -4.42968,-1.23305 -5.95163,-4.5204298 -4.40743,-9.5199698 1.11949,-3.62451 2.56143,-5.75444 14.15659,-20.91114 2.16117,-2.825 5.50485,-7.433 7.43038,-10.24 1.92554,-2.807 5.16554,-7.38482 7.2,-10.17294 2.03447,-2.78812 4.33151,-5.95612 5.10454,-7.04 0.7730304,-1.08388 2.7861302,-3.69869 4.4735602,-5.81069 11.11126,-13.90696 17.3546898,-19.84643 21.5834598,-20.53266 1.57574,-0.25571 2.77747,0.92709 2.77747,2.7337 0,2.7019 -0.90483,4.94789 -6.39705,15.87896 -7.4093098,14.7466 -9.4448698,19.94542 -10.2280198,26.12224 -0.52819,4.16593 0.51033,8.52227 2.59562,10.88801 2.07372,2.35262 6.0725798,4.41911 10.9965098,5.68267 5.13641,1.31808 10.78535,1.90546 24.95294,2.59462 10.49251,0.51039 14.48675,1.26597 15.67725,2.96562 1.3056,1.86403 0.12669,3.91496 -3.20928,5.58305 -7.58821,3.79435 -23.43493,6.45979 -53.90796975,9.06739 -6.83374005,0.58477 -13.88223025,1.4120298 -23.04000025,2.7041298 -3.26761,0.46104 -12.95744,0.92747 -13.6,0.65465 z m -18.95718,-10.1346498 c -2.84108,-1.40631 -5.90361,-5.81481 -8.83752,-12.72158 -0.79578,-1.87336 -2.66432,-6.35812 -4.1523,-9.96612 -2.49096,-6.04001 -4.3705,-10.2409 -8.3756,-18.72 -1.33248,-2.82095 -5.19074,-11.45982 -6.71712,-15.04 -5.96677,-13.99525 -10.08399,-26.957569 -10.07849,-31.730269 0.004,-3.43625 1.20151,-5.19707 3.25522,-4.78633 2.45371,0.49074 4.61758,3.12007 11.61758,14.116599 9.45319,14.85032 14.52879,20.66308 20.63213,23.62864 2.43406,1.18269 2.94982,1.31553 5.12,1.31867 4.10299,0.006 7.26961,-1.53508 11.77744,-5.73139 3.76943,-3.50894 8.55019,-9.88252 14.29677,-19.060048 3.20434,-5.117451 6.14049,-9.419251 7.55305,-11.066081 5.39641,-6.29138 8.70055,-3.11241 6.73323,6.47814 -1.88272,9.178089 -9.00157,27.142859 -19.35721,48.848909 -2.19041,4.59123 -4.02087,8.84321 -6.98401,16.22316 -2.37672,5.91943 -5.18156,11.789 -6.65184,13.92 -3.07125,4.45142 -6.48915,5.94206 -9.83133,4.2877 z m 75.54812,-17.603 c -2.8585,-0.46894 -5.12394,-1.51405 -7.00134,-3.22989 -6.0011098,-5.48468 -6.1599098,-14.53353 -0.35145,-20.02693 4.30432,-4.07084 10.1162,-4.93387 15.47158,-2.29743 6.44776,3.17422 9.28463,11.19471 6.25188,17.67554 -1.128,2.41048 -3.34033,4.95254 -5.31963,6.11249 -2.52276,1.47844 -6.30561,2.21662 -9.05104,1.76622 z m -150.836818,-0.29644 c -3.29451,-0.78262 -6.75654,-3.32325 -8.43201,-6.18788 -2.47226,-4.22692 -2.38731,-10.05844 0.20639,-14.16712 1.29928,-2.05819 4.07564,-4.34962 6.34077,-5.23326 1.70027,-0.66328 2.59759,-0.8 5.25073,-0.8 2.93319,0 3.37939,0.085 5.35147,1.01919 3.82705,1.81296 6.46891,4.87142 7.44506,8.6191 1.54733,5.9406 -0.74756,11.86065 -5.86103,15.11953 -2.63897,1.68186 -7.10761,2.38912 -10.30138,1.63044 z m 73.925878,-43.45013 c -7.94536,-2.63479 -11.70784,-11.59293 -7.97497,-18.987711 4.10544,-8.132838 15.06687,-9.866428 21.52128,-3.403668 6.60685,6.615412 4.71738,17.539699 -3.75375,21.702949 -1.93888,0.95288 -2.5618,1.09626 -5.12,1.17847 -2.16308,0.0695 -3.36545,-0.0566 -4.67256,-0.49004 z"
         id="path48"
         inkscape:connector-curvature="0" />
      <path
         style="fill:#f83e2e;stroke-width:0.31999999"
         d="m 460.74724,80.030162 c -2.38093,-0.64928 -3.57789,-1.35727 -4.51163,-2.66857 -0.91209,-1.28093 -1.12281,-3.86575 -0.48904,-5.9991 0.61555,-2.07202 2.68642,-5.99557 4.32615,-8.19649 0.65562,-0.88 2.038,-2.752 3.07196,-4.16 1.03395,-1.408 3.0727,-4.072 4.53055,-5.92 3.15296,-3.996761 6.86472,-9.015481 9.53497,-12.892321 1.06537,-1.54678 2.47704,-3.56278 3.13705,-4.48 0.66,-0.91723 1.72419,-2.45968 2.36485,-3.42768 1.55046,-2.34261 4.44974,-6.24401 5.85821,-7.88305 0.62531,-0.72767 1.52502,-1.95167 1.99936,-2.72 0.47434,-0.76832 1.84234,-2.60048 3.04,-4.07146 1.19766,-1.47098 2.60957,-3.2234 3.13757,-3.89427 3.43353,-4.3625705 5.24948,-6.4047345 9.16661,-10.3084645 4.88188,-4.86518 7.33075,-6.6512 9.44674,-6.8897 1.58902,-0.1791 2.19033,0.18533 2.45027,1.48501 0.20872,1.04363004 -0.50273,4.7586 -1.15779,6.04554 -0.24534,0.48202 -1.97857,3.972394 -3.85162,7.7563945 -1.87305,3.784 -3.61698,7.24 -3.87541,7.68 -0.74391,1.26659 -2.55167,5.25671 -4.34937,9.6 -4.95201,11.9642 -4.45443,20.10806 1.49552,24.476811 5.04617,3.70516 12.95873,5.50657 27.31505,6.21867 15.40336,0.76405 18.62442,1.13401 21.12317,2.42616 1.7447,0.90222 2.06278,2.43552 0.81328,3.92046 -1.6624,1.97565 -6.17011,3.72705 -13.77645,5.35264 -2.112,0.45137 -4.344,0.95321 -4.96,1.11522 -1.83721,0.48317 -14.1049,2.1772 -20.8,2.87224 -10.90141,1.13171 -12.514,1.28703 -18.56,1.78762 -3.256,0.26959 -6.496,0.56103 -7.2,0.64764 -4.24838,0.5227 -11.67744,1.49311 -14.56,1.90188 -1.848,0.26207 -5.448,0.54749 -8,0.63426 -3.80254,0.12931 -5.01541,0.0554 -6.72,-0.40944 z m 56.16,-27.84718 c -2.70702,-0.816091 -3.89809,-1.509691 -5.60925,-3.266481 -1.67371,-1.71833 -2.58981,-3.45393 -3.32921,-6.30738 -0.63052,-2.43324 -0.62956,-3.49423 0.005,-5.95693 1.43769,-5.57614 4.93297,-8.90846 10.44591,-9.95891 3.22449,-0.6144 5.79,-0.18862 8.76769,1.4551 2.69629,1.48839 4.1073,2.99637 5.55471,5.93649 3.32613,6.75631 -0.19543,15.32366 -7.35525,17.89412 -2.22769,0.799761 -6.18779,0.895021 -8.48,0.203991 z"
         id="path42"
         inkscape:connector-curvature="0"
         sodipodi:nodetypes="ccsccscccccscscccscscsccccscccccccccsccccc" />
      <path
         style="fill:#f83e2e;fill-opacity:1;stroke-width:0.31999999"
         d="m 537.28285,569.00399 c -1.11645,-0.47917 -1.47797,-1.02192 -0.99943,-1.50048 0.11032,-0.1103 0.62298,0.0179 1.13924,0.28486 1.91327,0.98938 4.47199,0.0173 3.59868,-1.36716 -0.18603,-0.29492 -1.11876,-0.80154 -2.07273,-1.1258 -1.98705,-0.67542 -2.41912,-1.03315 -2.71737,-2.24992 -0.32763,-1.33664 1.26954,-2.80806 3.04803,-2.80806 1.40687,0 2.56358,0.44707 2.56358,0.99088 0,0.20672 -0.52171,0.25011 -1.4084,0.11712 -2.00144,-0.30013 -2.7516,0.01 -2.7516,1.13638 0,0.83399 0.18034,0.98701 1.90389,1.61543 1.04714,0.38182 2.14907,0.96512 2.44873,1.29622 0.71678,0.79203 0.64626,2.46733 -0.13683,3.2504 -0.84078,0.84077 -3.08747,1.01607 -4.61579,0.36013 z M 359.76286,564.899 c 0,-3.81341 0.0632,-4.31831 0.56,-4.47437 0.46696,-0.14669 1.54685,-0.12202 4.73966,0.10829 0.18681,0.0134 0.65481,0.31811 1.04,0.67699 1.01276,0.94352 0.95013,2.84157 -0.13637,4.1328 l -0.83671,0.99437 0.83671,1.20739 c 0.99653,1.43798 1.02706,1.65296 0.23469,1.65296 -0.33111,0 -1.0006,-0.54 -1.48775,-1.2 -1.26708,-1.71664 -1.65847,-1.96893 -2.6473,-1.70646 -0.73952,0.19632 -0.877,0.42051 -0.96133,1.56777 -0.0793,1.07837 -0.21927,1.33869 -0.72,1.33869 -0.58462,0 -0.6216,-0.25574 -0.6216,-4.29843 z m 5.1748,-0.39117 c 1.40855,-1.27472 0.26487,-3.3104 -1.85983,-3.3104 -1.7737,0 -2.03497,0.24406 -2.03497,1.9009 0,0.83184 0.096,1.60844 0.21333,1.72576 0.43975,0.43974 3.09847,0.21136 3.68147,-0.31626 z m 64.67321,4.37891 c -1.51742,-0.36054 -2.48534,-1.10016 -3.08019,-2.35369 -0.971,-2.04624 -0.55494,-3.99021 1.20615,-5.63552 0.63894,-0.59693 1.28406,-0.81239 2.74983,-0.9184 1.70997,-0.12372 2.03867,-0.0442 3.06957,0.74208 2.89573,2.20867 2.58225,6.26019 -0.60371,7.80249 -1.48354,0.71818 -1.73288,0.74525 -3.34165,0.36304 z m 3.18551,-1.59846 c 1.24807,-0.98173 1.69219,-2.35584 1.24445,-3.85024 -0.50133,-1.67331 -1.68388,-2.56061 -3.41269,-2.56061 -1.12705,0 -1.51061,0.16902 -2.17473,0.95827 -1.03302,1.22768 -1.28026,2.03664 -1.03007,3.37027 0.4356,2.32196 3.53926,3.52477 5.37304,2.08231 z m 54.23261,1.67337 -1.53385,-0.12041 0.0471,-4.14359 c 0.0278,-2.44892 0.18208,-4.22697 0.37713,-4.34752 0.48563,-0.30016 4.36373,-0.51206 5.25895,-0.28736 1.33745,0.33568 0.46245,0.81466 -1.4882,0.81466 -2.59781,0 -2.88729,0.16042 -2.88729,1.6 0,1.42851 0.29716,1.6 2.77284,1.6 2.54791,0 2.11081,0.75222 -0.55783,0.96 l -2.05501,0.16 v 1.28 1.28 l 2.48,0.0935 c 1.82338,0.0687 2.48,0.20791 2.48,0.52576 0,0.80333 -0.83752,0.90346 -4.89386,0.58499 z m -111.90613,-0.42979 c 0,-0.63635 3.25725,-7.94358 3.70745,-8.31721 0.68094,-0.56512 1.28038,-0.15824 2.00317,1.35971 1.63134,3.42601 2.92938,6.46934 2.92938,6.86813 0,0.80441 -0.87861,0.444 -1.28,-0.52506 -0.39409,-0.95142 -0.42012,-0.96 -2.9106,-0.96 -2.46853,0 -2.52174,0.017 -3.0094,0.96 -0.47643,0.92131 -1.44,1.33245 -1.44,0.61443 z m 5.76,-3.48358 c 0,-0.87751 -1.00289,-2.89085 -1.44,-2.89085 -0.43711,0 -1.44,2.01334 -1.44,2.89085 0,0.53232 0.22162,0.62915 1.44,0.62915 1.21838,0 1.44,-0.0968 1.44,-0.62915 z m 11.52,-0.47197 c 0,-2.69219 0.12724,-4.37974 0.34016,-4.51133 0.46851,-0.28957 1.31434,0.53034 3.72667,3.61245 1.13646,1.452 2.17718,2.64 2.31272,2.64 0.13553,0 0.32882,-1.38125 0.42954,-3.06944 0.19051,-3.19312 0.28167,-3.53472 0.84962,-3.18371 0.21433,0.13245 0.34129,1.81094 0.34129,4.51203 0,4.26032 -0.007,4.30112 -0.72755,4.30112 -0.54083,0 -1.33317,-0.78294 -3.08745,-3.05085 -1.29796,-1.67795 -2.51856,-2.9983 -2.71246,-2.93411 -0.21324,0.0706 -0.3889,1.27606 -0.44455,3.05085 -0.0727,2.31936 -0.19006,2.93411 -0.56,2.93411 -0.38744,0 -0.46799,-0.74029 -0.46799,-4.30112 z m 17.49332,4.08778 c -0.26528,-0.26528 -0.21166,-6.32013 0.0675,-7.62666 0.19511,-0.91296 0.2941,-0.96512 2.02072,-1.06445 2.1573,-0.12413 4.39743,0.72656 5.22024,1.98234 1.33271,2.03395 0.75633,5.09181 -1.18256,6.27392 -0.81593,0.49744 -1.61673,0.64608 -3.48594,0.64701 -1.33466,0 -2.52266,-0.0948 -2.64,-0.21216 z m 5.75135,-1.74864 c 2.30706,-2.16736 0.45557,-6.03802 -2.88823,-6.03802 -1.71625,0 -1.79645,0.1575 -1.79645,3.52758 0,2.20215 0.11939,3.19268 0.4,3.31866 0.87221,0.39155 3.54405,-0.11242 4.28468,-0.80822 z m 28.66629,-2.43802 0.089,-4.4 0.86357,-0.0997 c 0.95542,-0.11027 1.77384,0.92208 3.08245,3.88816 0.37575,0.85165 0.84314,1.49514 1.03864,1.42995 0.1955,-0.0652 0.95393,-1.26595 1.6854,-2.66845 1.21231,-2.32444 1.41485,-2.54998 2.28994,-2.54998 h 0.96 l 0.0892,4.42525 c 0.0826,4.09568 0.0468,4.41712 -0.48,4.31632 -0.48882,-0.0935 -0.58222,-0.52954 -0.6615,-3.08778 -0.0666,-2.1504 -0.20013,-2.94621 -0.48,-2.86131 -0.21323,0.0647 -0.96369,1.22944 -1.66769,2.58835 -0.77695,1.49971 -1.4545,2.43703 -1.72401,2.38496 -0.24421,-0.0472 -1.03621,-1.19901 -1.76,-2.55961 -0.72379,-1.36061 -1.49599,-2.47661 -1.71599,-2.48 -0.29236,-0.004 -0.4,0.81187 -0.4,3.03382 0,2.84077 -0.0425,3.04 -0.64903,3.04 -0.62489,0 -0.64572,-0.16365 -0.56,-4.4 z m 28.72903,0.59424 c 0,-4.10336 -0.0393,-4.19424 -1.81284,-4.19424 -0.49817,0 -0.75014,-0.15107 -0.66716,-0.4 0.094,-0.28192 1.01511,-0.4 3.12,-0.4 2.10489,0 3.02603,0.11808 3.12,0.4 0.0791,0.23728 -0.14643,0.4 -0.55437,0.4 -0.37824,0 -0.96624,0.14906 -1.30667,0.33126 -0.55669,0.29792 -0.61896,0.70032 -0.61896,4 0,3.4554 -0.0372,3.66874 -0.64,3.66874 -0.60412,0 -0.64,-0.21334 -0.64,-3.80576 z m 26.85447,3.08576 c 0.5927,-1.53158 2.68058,-6.14685 3.20715,-7.08941 0.59022,-1.05651 1.53371,-1.29977 1.98017,-0.51059 0.64497,1.1401 3.47821,7.61766 3.47821,7.95216 0,0.73642 -0.95633,0.34314 -1.44,-0.59216 -0.48419,-0.93632 -0.55525,-0.96 -2.88,-0.96 -2.32475,0 -2.39581,0.0237 -2.88,0.96 -0.61296,1.18534 -1.9138,1.39837 -1.46553,0.24 z m 6.10553,-2.79142 c 0,-0.65271 -1.4251,-3.20858 -1.78902,-3.20858 -0.39192,0 -1.41098,2.20026 -1.41098,3.04646 0,0.35492 0.40084,0.47354 1.6,0.47354 0.88,0 1.6,-0.14016 1.6,-0.31142 z m 10.98639,3.00713 c -0.30687,-0.79971 0.0949,-7.82505 0.46895,-8.19904 0.18579,-0.18579 0.67702,-0.25267 1.09161,-0.14861 0.55435,0.13914 1.08556,0.8696 2.0075,2.76055 0.68953,1.41427 1.40486,2.56925 1.58962,2.56665 0.18476,-0.003 0.91659,-1.11862 1.62629,-2.48 1.14357,-2.19369 1.4024,-2.4863 2.27538,-2.57222 0.91556,-0.0901 0.9992,-0.0112 1.18612,1.12 0.25797,1.56112 0.26743,6.29011 0.0139,6.95078 -0.10683,0.2784 -0.39483,0.50618 -0.64,0.50618 -0.34668,0 -0.44685,-0.62237 -0.45066,-2.8 -0.005,-2.89264 -0.30249,-4.0489 -0.8351,-3.2465 -0.154,0.232 -0.856,1.5074 -1.56,2.83418 -0.704,1.32678 -1.424,2.41232 -1.6,2.41232 -0.176,0 -0.92081,-1.152 -1.65512,-2.56 -0.73431,-1.408 -1.52631,-2.56 -1.76,-2.56 -0.31592,0 -0.44848,0.75907 -0.51689,2.96 -0.0737,2.3713 -0.18708,2.96 -0.57005,2.96 -0.26291,0 -0.56512,-0.22694 -0.67155,-0.50429 z m 15.57361,-14.63929 c -2.40384,-0.56077 -3.68631,-1.29597 -5.48881,-3.14653 -3.76548,-3.86589 -3.83482,-11.59034 -0.14192,-15.81187 4.66283,-5.33034 13.35561,-4.98489 17.36838,0.6902 1.65123,2.33527 2.4097,4.62839 2.28037,6.89437 l -0.098,1.71741 -7.49293,0.0689 c -4.12112,0.0379 -7.62297,0.19897 -7.78189,0.35789 -0.45032,0.45033 0.50312,2.37814 1.65586,3.34812 0.80313,0.67578 1.36241,0.86506 2.55619,0.86506 1.50406,0 1.66492,-0.0763 4.38132,-2.07901 0.62671,-0.46208 0.87117,-0.43046 3.2,0.41367 1.57442,0.57065 2.55921,1.10944 2.622,1.43449 0.16384,0.84829 -2.42961,3.35613 -4.54132,4.39143 -2.35283,1.1535 -5.77124,1.49692 -8.51923,0.85584 z m 6.90345,-15.17642 c -0.11326,-0.484 -0.70276,-1.348 -1.30999,-1.92 -0.92825,-0.8744 -1.34686,-1.03968 -2.62876,-1.03789 -2.23721,0.003 -4.19779,1.52115 -4.23336,3.27789 -0.0102,0.50544 0.39742,0.56 4.18335,0.56 h 4.19469 z m 18.99108,15.29334 c -3.34403,-0.60396 -6.40449,-3.0168 -7.83129,-6.17414 -0.76808,-1.69968 -0.90641,-2.43066 -0.92333,-4.8792 -0.0265,-3.8399 0.63207,-5.69802 2.8805,-8.12656 2.41735,-2.61104 4.84365,-3.68968 8.29959,-3.68968 2.13165,0 2.89379,0.15219 4.55498,0.90957 3.91193,1.78353 6.51948,5.7124 6.6016,9.94667 l 0.0434,2.24 -7.36,0.0613 c -4.048,0.0337 -7.54,0.0697 -7.76,0.08 -0.54141,0.0253 -0.50458,1.12826 0.0752,2.24935 0.74438,1.43945 2.12528,2.24934 3.83526,2.24934 1.70013,0 2.4816,-0.33126 3.86461,-1.63821 l 0.97504,-0.92141 2.68586,0.9025 c 1.47721,0.49635 2.74006,1.06512 2.8063,1.26387 0.3353,1.00589 -3.2033,4.15863 -5.62762,5.01399 -1.67625,0.59142 -5.25648,0.84915 -7.12009,0.5126 z m 6.50601,-14.60054 c 0.36557,-0.3656 -0.47539,-2.05888 -1.41536,-2.84982 -1.8678,-1.57165 -5.34544,-0.80567 -6.50272,1.43225 -0.27974,0.54096 -0.42224,1.12333 -0.31664,1.29418 0.20343,0.32918 7.91338,0.4447 8.23472,0.12339 z m -236.38248,14.19808 c -0.0716,-0.22598 -0.20063,-6.15475 -0.28669,-13.17504 -0.12454,-10.15879 -0.24373,-12.82227 -0.58392,-13.04889 -0.23509,-0.15661 -1.76,-0.19157 -3.38869,-0.0777 -2.15061,0.15037 -3.0923,0.0983 -3.44,-0.19028 -0.63209,-0.5246 -0.70253,-6.6672 -0.0787,-6.8675 0.22,-0.0707 5.23936,-0.21375 11.15414,-0.318 9.07506,-0.15996 10.81314,-0.11847 11.13198,0.26571 0.24926,0.30034 0.34654,1.52822 0.28586,3.60805 l -0.092,3.15277 -3.61412,0.0906 c -2.71899,0.0682 -3.65621,0.20031 -3.78407,0.53353 -0.0935,0.2436 -0.19513,6.25084 -0.22589,13.3494 l -0.0559,12.90647 -3.44587,0.0909 c -2.58839,0.0683 -3.47827,-0.0115 -3.57608,-0.32 z m 23.66195,0.0914 c -2.72543,-0.65926 -5.57521,-2.90467 -6.84474,-5.39315 -0.85573,-1.67738 -1.32957,-4.75808 -1.10917,-7.21133 0.34838,-3.87776 2.64299,-7.28797 6.07075,-9.02225 1.4957,-0.75676 2.33832,-0.94785 4.67157,-1.0594 2.74587,-0.13128 2.92829,-0.0957 5.14916,1.00433 3.73547,1.85025 6.05346,5.27102 6.49131,9.57953 0.12072,1.188 0.16362,2.18944 0.0953,2.22538 -0.0683,0.036 -3.58019,0.14396 -7.80419,0.24 -7.41981,0.1687 -7.68316,0.19673 -7.77344,0.82736 -0.13898,0.97081 1.21706,2.78643 2.5804,3.45494 1.66001,0.81392 3.45812,0.47709 5.02899,-0.94208 0.66089,-0.59709 1.48012,-1.0856 1.8205,-1.0856 1.20551,0 5.06251,1.49341 5.16103,1.99834 0.24589,1.26003 -3.51604,4.33414 -6.32455,5.16819 -1.76274,0.52345 -5.48097,0.63469 -7.21293,0.21574 z m 6.69383,-14.29651 c 0.80644,-0.30947 0.59099,-1.32259 -0.54482,-2.56198 -1.9093,-2.08343 -5.28415,-1.68426 -6.74135,0.79734 -1.02527,1.74602 -0.66929,1.95888 3.27613,1.95888 1.92713,0 3.73164,-0.0874 4.01004,-0.19424 z m 17.43731,14.15549 c -2.422,-0.86576 -4.31054,-2.86375 -5.78591,-6.12125 -0.98268,-2.16966 -1.04405,-6.87446 -0.1221,-9.35978 1.34828,-3.63452 4.66214,-6.55002 7.95858,-7.00185 2.06842,-0.28351 3.47252,0.0661 5.35574,1.33337 0.90577,0.60954 1.77227,1.10826 1.92556,1.10826 0.15328,0 0.39996,-0.468 0.54818,-1.04 l 0.26949,-1.04 h 3.01966 3.01966 l 0.27627,10.64352 c 0.21902,8.43834 0.19238,10.74458 -0.12862,11.13136 -0.31978,0.38531 -1.01676,0.46864 -3.31626,0.39648 l -2.91139,-0.0914 -0.10282,-1.12 c -0.16018,-1.7449 -0.56052,-1.86304 -1.89766,-0.5601 -0.65973,0.64285 -1.7349,1.39188 -2.38924,1.66448 -1.4288,0.5952 -4.13771,0.62215 -5.71914,0.0569 z m 7.06588,-6.23495 c 1.38504,-0.74281 2.56298,-2.88528 2.56298,-4.66163 0,-2.75433 -2.11414,-4.98467 -4.72497,-4.98467 -1.22859,0 -1.60121,0.17088 -2.64193,1.21162 -4.18448,4.18448 -0.2271,11.13283 4.80392,8.43468 z m 193.7271,6.21562 c -0.1016,-0.26477 -0.0631,-8.01002 0.0856,-17.21165 l 0.27027,-16.73027 h 3.2 3.2 l 0.0768,8 c 0.0422,4.4 -0.0298,12.104 -0.16,17.12 l -0.2368,9.12 -3.12557,0.0917 c -2.54598,0.0747 -3.15984,0.003 -3.3103,-0.38973 z m -177.25857,-0.5842 c -0.0849,-0.22125 -0.11639,-5.22525 -0.07,-11.12 l 0.0844,-10.71773 h 3.2 3.2 l 0.0923,1.12 c 0.16711,2.0271 0.28535,2.08093 1.81574,0.82691 4.0488,-3.31771 7.64259,-3.2054 10.66742,0.33335 l 1.28407,1.50224 1.71021,-1.49924 c 2.288,-2.0057 3.92853,-2.76326 5.984,-2.76326 2.05911,0 3.78616,0.82916 5.14626,2.47072 1.74798,2.1097 1.96188,3.51651 1.86578,12.2712 l -0.0858,7.81808 -2.8508,0.0932 c -1.75587,0.0574 -2.98492,-0.0409 -3.2,-0.25584 -0.22409,-0.224 -0.36709,-2.53225 -0.39915,-6.44288 -0.0601,-7.33587 -0.16364,-7.9934 -1.42548,-9.05516 -1.68669,-1.41927 -4.08176,-0.87965 -5.37368,1.21072 -0.62267,1.00748 -0.67089,1.54576 -0.67089,7.48857 0,5.10035 -0.0912,6.47875 -0.44836,6.77514 -0.28699,0.23821 -1.46739,0.33869 -3.27999,0.2792 l -2.83164,-0.093 -0.16,-6.88 c -0.16918,-7.27475 -0.25943,-7.7225 -1.80113,-8.93517 -1.05702,-0.83145 -2.2213,-0.84387 -3.54333,-0.0378 -1.97241,1.20266 -2.164,1.99072 -2.2787,9.37296 l -0.10317,6.64 h -3.18687 c -2.26392,0 -3.23158,-0.11651 -3.34124,-0.40227 z m 61.66153,-0.15773 c -0.16249,-0.308 -0.97485,-3.44 -1.80526,-6.96 -0.8304,-3.52 -2.56505,-10.78509 -3.85476,-16.14465 -1.28971,-5.35955 -2.27391,-9.85955 -2.18711,-10 0.0868,-0.14044 1.52088,-0.25535 3.18685,-0.25535 2.85133,0 3.04419,0.0422 3.2874,0.72 0.1421,0.396 1.32001,5.22218 2.61757,10.72484 1.38714,5.88255 2.49703,9.95999 2.69371,9.89602 0.18398,-0.0598 1.44435,-4.56198 2.80081,-10.00482 1.35647,-5.44282 2.54721,-10.22004 2.6461,-10.61604 0.16625,-0.66575 0.35853,-0.72 2.55213,-0.72 1.98437,0 2.39881,0.0916 2.53422,0.56 0.089,0.308 0.38177,1.496 0.65053,2.64 2.08808,8.88822 4.43933,18.12915 4.67309,18.36627 0.16431,0.16669 0.3802,-0.10067 0.51678,-0.64 0.12902,-0.50944 1.33137,-5.39027 2.6719,-10.84627 l 2.43732,-9.92 2.99713,-0.0927 c 1.64842,-0.051 3.11099,0.0212 3.25016,0.16035 0.13916,0.13916 -0.96551,5.22087 -2.45482,11.29268 -1.48932,6.07182 -3.20449,13.12766 -3.81149,15.67966 -0.60699,2.552 -1.22778,5.072 -1.37951,5.6 l -0.27588,0.96 h -3.47467 -3.47467 l -2.26952,-9.37763 c -1.24824,-5.15767 -2.41028,-9.40567 -2.58231,-9.44 -0.17203,-0.0343 -1.32388,3.96963 -2.55966,8.89763 -1.23579,4.928 -2.34727,9.212 -2.46996,9.52 -0.19166,0.48112 -0.67372,0.56 -3.42187,0.56 -2.72058,0 -3.24295,-0.0837 -3.49421,-0.56 z m 36.90415,0.17165 c -0.0867,-0.2264 -0.12019,-7.97165 -0.0744,-17.21165 l 0.0832,-16.8 3.17356,-0.0922 c 2.21335,-0.0643 3.24547,0.0241 3.41125,0.29238 0.13074,0.21153 0.15837,3.36401 0.0614,7.0055 -0.11984,4.50014 -0.0677,6.68804 0.16285,6.83051 0.18653,0.11526 1.0348,-0.22156 1.88504,-0.74852 4.42279,-2.74119 9.35119,-1.46418 11.3405,2.93844 0.7429,1.64413 0.7654,1.93376 0.7654,9.85392 v 8.16 h -3.2 -3.2 l -0.16,-6.88 c -0.17939,-7.71373 -0.38977,-8.54582 -2.40336,-9.50605 -0.92999,-0.44349 -1.29255,-0.46256 -2.41284,-0.12691 -1.1149,0.33405 -1.42425,0.62637 -2.0043,1.89398 -0.6077,1.32804 -0.70494,2.24708 -0.85271,8.05898 l -0.16679,6.56 -3.12557,0.0917 c -2.32087,0.0681 -3.16615,-0.0144 -3.28319,-0.32 z"
         id="path46"
         inkscape:connector-curvature="0"
         sodipodi:nodetypes="scccccsscscccsscccsccscccsscsscccccccccccscsccccccssscccccsccsccscscsssssssccsccsscccsscccccccccssccccccccscccccccccssccsscscscssscccscsccssssscccccccccsccsssscsccccccccccsccccccccccsccccccsccccccscccccccccccccsccccsccccccccccccscccccssccscccccccsccccscssccccsccccccccsscccccccccccccccccccccccsccccccccscccsccscsccccscscscccsccccscccccccccccccscccccccccccscccscccscccc" />
      <path
         style="fill:#3b95f8;stroke-width:0.31999999"
         d="m 537.75172,496.05138 c -1.11645,-0.4792 -1.47797,-1.0219 -0.99943,-1.5005 0.11032,-0.1103 0.62298,0.018 1.13924,0.2849 1.91327,0.9893 4.47199,0.017 3.59868,-1.3672 -0.18603,-0.2949 -1.11876,-0.8015 -2.07273,-1.1258 -1.98705,-0.6754 -2.41912,-1.0332 -2.71737,-2.2499 -0.32763,-1.3367 1.26954,-2.8081 3.04803,-2.8081 1.40687,0 2.56358,0.4471 2.56358,0.9909 0,0.2067 -0.52171,0.2501 -1.4084,0.1171 -2.00144,-0.3001 -2.7516,0.01 -2.7516,1.1364 0,0.834 0.18034,0.987 1.90389,1.6154 1.04714,0.3818 2.14907,0.9651 2.44873,1.2962 0.71678,0.7921 0.64626,2.4674 -0.13683,3.2504 -0.84078,0.8408 -3.08747,1.0161 -4.61579,0.3602 z m -177.52,-4.105 c 0,-3.8134 0.0632,-4.3183 0.56,-4.4744 0.46696,-0.1467 1.54685,-0.122 4.73966,0.1083 0.18681,0.013 0.65481,0.3181 1.04,0.677 1.01276,0.9435 0.95013,2.8416 -0.13637,4.1328 l -0.83671,0.9944 0.83671,1.2074 c 0.99653,1.4379 1.02706,1.6529 0.23469,1.6529 -0.33111,0 -1.0006,-0.54 -1.48775,-1.2 -1.26708,-1.7166 -1.65847,-1.9689 -2.6473,-1.7064 -0.73952,0.1963 -0.877,0.4205 -0.96133,1.5677 -0.0793,1.0784 -0.21927,1.3387 -0.72,1.3387 -0.58462,0 -0.6216,-0.2557 -0.6216,-4.2984 z m 5.1748,-0.3912 c 1.40855,-1.2747 0.26487,-3.3104 -1.85983,-3.3104 -1.7737,0 -2.03497,0.2441 -2.03497,1.9009 0,0.8319 0.096,1.6085 0.21333,1.7258 0.43975,0.4397 3.09847,0.2113 3.68147,-0.3163 z m 64.67323,4.3789 c -1.51743,-0.3605 -2.48535,-1.1001 -3.0802,-2.3537 -0.971,-2.0462 -0.55494,-3.9902 1.20615,-5.6355 0.63895,-0.5969 1.28407,-0.8124 2.74984,-0.9184 1.70997,-0.1237 2.03867,-0.044 3.06957,0.7421 2.89573,2.2087 2.58225,6.2602 -0.60371,7.8025 -1.48354,0.7182 -1.73288,0.7452 -3.34165,0.363 z m 3.18551,-1.5984 c 1.24807,-0.9818 1.69219,-2.3559 1.24445,-3.8503 -0.50133,-1.6733 -1.68388,-2.5606 -3.41269,-2.5606 -1.12705,0 -1.51061,0.169 -2.17473,0.9583 -1.03303,1.2277 -1.28027,2.0366 -1.03008,3.3703 0.4356,2.3219 3.53927,3.5247 5.37305,2.0823 z m 54.23261,1.6733 -1.53385,-0.1204 0.0471,-4.1436 c 0.0278,-2.4489 0.18208,-4.2269 0.37713,-4.3475 0.48563,-0.3001 4.36373,-0.512 5.25895,-0.2873 1.33745,0.3356 0.46245,0.8146 -1.4882,0.8146 -2.59781,0 -2.88729,0.1604 -2.88729,1.6 0,1.4285 0.29716,1.6 2.77284,1.6 2.54791,0 2.11081,0.7522 -0.55783,0.96 l -2.05501,0.16 v 1.28 1.28 l 2.48,0.093 c 1.82338,0.069 2.48,0.2079 2.48,0.5258 0,0.8033 -0.83752,0.9034 -4.89386,0.585 z m -111.90615,-0.4298 c 0,-0.6363 3.25726,-7.9435 3.70746,-8.3172 0.68094,-0.5651 1.28038,-0.1582 2.00317,1.3597 1.63134,3.4261 2.92938,6.4694 2.92938,6.8682 0,0.8044 -0.87861,0.444 -1.28,-0.5251 -0.39409,-0.9514 -0.42012,-0.96 -2.9106,-0.96 -2.46853,0 -2.52174,0.017 -3.0094,0.96 -0.47643,0.9213 -1.44001,1.3325 -1.44001,0.6144 z m 5.76001,-3.4835 c 0,-0.8775 -1.00289,-2.8909 -1.44,-2.8909 -0.43711,0 -1.44,2.0134 -1.44,2.8909 0,0.5323 0.22162,0.6291 1.44,0.6291 1.21838,0 1.44,-0.097 1.44,-0.6291 z m 11.52,-0.472 c 0,-2.6922 0.12724,-4.3797 0.34016,-4.5113 0.46851,-0.2896 1.31434,0.5303 3.72667,3.6124 1.13646,1.452 2.17718,2.64 2.31272,2.64 0.13553,0 0.32882,-1.3812 0.42954,-3.0694 0.19051,-3.1931 0.28167,-3.5347 0.84962,-3.1837 0.21433,0.1324 0.34129,1.8109 0.34129,4.512 0,4.2603 -0.007,4.3011 -0.72755,4.3011 -0.54083,0 -1.33317,-0.7829 -3.08745,-3.0508 -1.29796,-1.678 -2.51856,-2.9983 -2.71246,-2.9341 -0.21324,0.071 -0.3889,1.276 -0.44455,3.0508 -0.0727,2.3194 -0.19006,2.9341 -0.56,2.9341 -0.38744,0 -0.46799,-0.7403 -0.46799,-4.3011 z m 17.49332,4.0878 c -0.26528,-0.2653 -0.21166,-6.3202 0.0675,-7.6267 0.19511,-0.9129 0.2941,-0.9651 2.02072,-1.0644 2.1573,-0.1242 4.39743,0.7265 5.22024,1.9823 1.33271,2.034 0.75633,5.0918 -1.18256,6.2739 -0.81593,0.4975 -1.61673,0.6461 -3.48594,0.647 -1.33466,0 -2.52266,-0.095 -2.64,-0.2121 z m 5.75135,-1.7487 c 2.30706,-2.1673 0.45557,-6.038 -2.88823,-6.038 -1.71625,0 -1.79645,0.1575 -1.79645,3.5276 0,2.2021 0.11939,3.1927 0.4,3.3187 0.87221,0.3915 3.54405,-0.1125 4.28468,-0.8083 z m 28.6663,-2.438 0.089,-4.4 0.86357,-0.1 c 0.95542,-0.1103 1.77384,0.9221 3.08245,3.8882 0.37575,0.8516 0.84314,1.4951 1.03864,1.4299 0.1955,-0.065 0.95393,-1.2659 1.6854,-2.6684 1.21231,-2.3245 1.41485,-2.55 2.28994,-2.55 h 0.96 l 0.0892,4.4252 c 0.0826,4.0957 0.0468,4.4172 -0.48,4.3164 -0.48882,-0.093 -0.58222,-0.5296 -0.6615,-3.0878 -0.0666,-2.1504 -0.20013,-2.9462 -0.48,-2.8613 -0.21323,0.065 -0.96369,1.2294 -1.66769,2.5883 -0.77695,1.4997 -1.4545,2.4371 -1.72401,2.385 -0.24421,-0.047 -1.03621,-1.199 -1.76,-2.5596 -0.72379,-1.3606 -1.49599,-2.4766 -1.71599,-2.48 -0.29236,0 -0.4,0.8118 -0.4,3.0338 0,2.8408 -0.0425,3.04 -0.64903,3.04 -0.62489,0 -0.64572,-0.1637 -0.56,-4.4 z m 28.72903,0.5943 c 0,-4.1034 -0.0393,-4.1943 -1.81284,-4.1943 -0.49817,0 -0.75014,-0.1511 -0.66716,-0.4 0.094,-0.2819 1.01511,-0.4 3.12,-0.4 2.10489,0 3.02603,0.1181 3.12,0.4 0.0791,0.2373 -0.14643,0.4 -0.55437,0.4 -0.37824,0 -0.96624,0.1491 -1.30667,0.3313 -0.55669,0.2979 -0.61896,0.7003 -0.61896,4 0,3.4554 -0.0372,3.6687 -0.64,3.6687 -0.60412,0 -0.64,-0.2133 -0.64,-3.8057 z m 26.85447,3.0857 c 0.5927,-1.5316 2.68058,-6.1468 3.20715,-7.0894 0.59022,-1.0565 1.53371,-1.2998 1.98017,-0.5106 0.64497,1.1401 3.47821,7.6177 3.47821,7.9522 0,0.7364 -0.95633,0.3431 -1.44,-0.5922 -0.48419,-0.9363 -0.55525,-0.96 -2.88,-0.96 -2.32475,0 -2.39581,0.024 -2.88,0.96 -0.61296,1.1854 -1.9138,1.3984 -1.46553,0.24 z m 6.10553,-2.7914 c 0,-0.6527 -1.4251,-3.2086 -1.78902,-3.2086 -0.39192,0 -1.41098,2.2003 -1.41098,3.0465 0,0.3549 0.40084,0.4735 1.6,0.4735 0.88,0 1.6,-0.1401 1.6,-0.3114 z m 10.98639,3.0071 c -0.30687,-0.7997 0.0949,-7.825 0.46895,-8.199 0.18579,-0.1858 0.67702,-0.2527 1.09161,-0.1486 0.55435,0.1391 1.08556,0.8696 2.0075,2.7605 0.68953,1.4143 1.40486,2.5693 1.58962,2.5667 0.18476,0 0.91659,-1.1186 1.62629,-2.48 1.14357,-2.1937 1.4024,-2.4863 2.27538,-2.5722 0.91556,-0.09 0.9992,-0.011 1.18612,1.12 0.25797,1.5611 0.26743,6.2901 0.0139,6.9507 -0.10683,0.2784 -0.39483,0.5062 -0.64,0.5062 -0.34668,0 -0.44685,-0.6224 -0.45066,-2.8 -0.005,-2.8926 -0.30249,-4.0489 -0.8351,-3.2465 -0.154,0.232 -0.856,1.5074 -1.56,2.8342 -0.704,1.3268 -1.424,2.4123 -1.6,2.4123 -0.176,0 -0.92081,-1.152 -1.65512,-2.56 -0.73431,-1.408 -1.52631,-2.56 -1.76,-2.56 -0.31592,0 -0.44848,0.7591 -0.51689,2.96 -0.0737,2.3713 -0.18708,2.96 -0.57005,2.96 -0.26291,0 -0.56512,-0.2269 -0.67155,-0.5043 z m 15.5736,-14.6393 c -2.40383,-0.5607 -3.6863,-1.2959 -5.4888,-3.1465 -3.76548,-3.8659 -3.83482,-11.5903 -0.14192,-15.8119 4.66282,-5.3303 13.3556,-4.9849 17.36837,0.6902 1.65123,2.3353 2.4097,4.6284 2.28037,6.8944 l -0.098,1.7174 -7.49293,0.069 c -4.12112,0.038 -7.62297,0.199 -7.78189,0.3579 -0.45032,0.4503 0.50312,2.3781 1.65586,3.3481 0.80313,0.6758 1.36241,0.8651 2.55619,0.8651 1.50406,0 1.66492,-0.076 4.38132,-2.079 0.62671,-0.4621 0.87117,-0.4305 3.2,0.4136 1.57442,0.5707 2.55921,1.1095 2.622,1.4345 0.16384,0.8483 -2.42961,3.3562 -4.54132,4.3915 -2.35283,1.1535 -5.77124,1.4969 -8.51923,0.8558 z m 6.90345,-15.1764 c -0.11326,-0.484 -0.70276,-1.348 -1.30999,-1.92 -0.92825,-0.8744 -1.34686,-1.0397 -2.62876,-1.0379 -2.23721,0 -4.19779,1.5212 -4.23336,3.2779 -0.0102,0.5055 0.39742,0.56 4.18335,0.56 h 4.19469 z m 18.99108,15.2934 c -3.34403,-0.604 -6.40449,-3.0168 -7.83129,-6.1742 -0.76808,-1.6997 -0.90641,-2.4306 -0.92333,-4.8792 -0.0265,-3.8399 0.63207,-5.698 2.8805,-8.1265 2.41735,-2.6111 4.84365,-3.6897 8.29959,-3.6897 2.13165,0 2.89379,0.1522 4.55498,0.9095 3.91193,1.7836 6.51948,5.7124 6.6016,9.9467 l 0.0434,2.24 -7.36,0.061 c -4.048,0.034 -7.54,0.07 -7.76,0.08 -0.54141,0.025 -0.50458,1.1283 0.0752,2.2494 0.74438,1.4394 2.12528,2.2493 3.83526,2.2493 1.70013,0 2.4816,-0.3313 3.86461,-1.6382 l 0.97504,-0.9214 2.68586,0.9025 c 1.47721,0.4963 2.74006,1.0651 2.8063,1.2639 0.3353,1.0058 -3.2033,4.1586 -5.62762,5.0139 -1.67625,0.5915 -5.25648,0.8492 -7.12009,0.5126 z m 6.50601,-14.6006 c 0.36557,-0.3656 -0.47539,-2.0589 -1.41536,-2.8498 -1.8678,-1.5717 -5.34544,-0.8057 -6.50272,1.4322 -0.27974,0.541 -0.42224,1.1234 -0.31664,1.2942 0.20343,0.3292 7.91338,0.4447 8.23472,0.1234 z m -236.38249,14.1981 c -0.0716,-0.226 -0.20063,-6.1548 -0.28669,-13.175 -0.12454,-10.1588 -0.24373,-12.8223 -0.58392,-13.0489 -0.23509,-0.1566 -1.76,-0.1916 -3.38869,-0.078 -2.15061,0.1503 -3.0923,0.098 -3.44,-0.1903 -0.63209,-0.5246 -0.70253,-6.6672 -0.0787,-6.8675 0.22,-0.071 5.23936,-0.2138 11.15414,-0.318 9.07506,-0.16 10.81314,-0.1185 11.13198,0.2657 0.24926,0.3003 0.34654,1.5282 0.28586,3.608 l -0.092,3.1528 -3.61412,0.091 c -2.71899,0.068 -3.65621,0.2003 -3.78407,0.5335 -0.0935,0.2436 -0.19513,6.2509 -0.22589,13.3494 l -0.0559,12.9065 -3.44587,0.091 c -2.58839,0.068 -3.47827,-0.012 -3.57608,-0.32 z m 23.66195,0.091 c -2.72543,-0.6593 -5.57521,-2.9047 -6.84474,-5.3932 -0.85573,-1.6773 -1.32957,-4.758 -1.10917,-7.2113 0.34838,-3.8777 2.64299,-7.288 6.07075,-9.0222 1.4957,-0.7568 2.33832,-0.9479 4.67157,-1.0594 2.74587,-0.1313 2.92829,-0.096 5.14916,1.0043 3.73547,1.8502 6.05346,5.271 6.49131,9.5795 0.12072,1.188 0.16362,2.1895 0.0953,2.2254 -0.0683,0.036 -3.58019,0.144 -7.80419,0.24 -7.41981,0.1687 -7.68316,0.1967 -7.77344,0.8274 -0.13898,0.9708 1.21706,2.7864 2.5804,3.4549 1.66001,0.8139 3.45812,0.4771 5.02899,-0.9421 0.66089,-0.5971 1.48012,-1.0856 1.8205,-1.0856 1.20551,0 5.06251,1.4934 5.16103,1.9984 0.24589,1.26 -3.51604,4.3341 -6.32455,5.1682 -1.76274,0.5234 -5.48097,0.6346 -7.21293,0.2157 z m 6.69383,-14.2965 c 0.80644,-0.3095 0.59099,-1.3226 -0.54482,-2.562 -1.9093,-2.0834 -5.28415,-1.6843 -6.74135,0.7973 -1.02527,1.7461 -0.66929,1.9589 3.27613,1.9589 1.92713,0 3.73164,-0.087 4.01004,-0.1942 z m 17.43732,14.1555 c -2.42201,-0.8658 -4.31055,-2.8638 -5.78592,-6.1213 -0.98268,-2.1696 -1.04405,-6.8744 -0.1221,-9.3598 1.34828,-3.6345 4.66214,-6.55 7.95859,-7.0018 2.06842,-0.2835 3.47252,0.066 5.35574,1.3334 0.90577,0.6095 1.77227,1.1082 1.92556,1.1082 0.15328,0 0.39996,-0.468 0.54818,-1.04 l 0.26949,-1.04 h 3.01966 3.01966 l 0.27627,10.6435 c 0.21902,8.4384 0.19238,10.7446 -0.12862,11.1314 -0.31978,0.3853 -1.01676,0.4686 -3.31626,0.3965 l -2.91139,-0.091 -0.10282,-1.12 c -0.16018,-1.7449 -0.56052,-1.8631 -1.89766,-0.5601 -0.65973,0.6428 -1.7349,1.3919 -2.38924,1.6645 -1.4288,0.5952 -4.13771,0.6221 -5.71914,0.057 z m 7.06588,-6.235 c 1.38504,-0.7428 2.56298,-2.8853 2.56298,-4.6616 0,-2.7543 -2.11414,-4.9847 -4.72497,-4.9847 -1.22859,0 -1.60121,0.1709 -2.64193,1.2116 -4.18449,4.1845 -0.2271,11.1329 4.80392,8.4347 z m 193.72711,6.2156 c -0.1016,-0.2647 -0.0631,-8.01 0.0856,-17.2116 l 0.27027,-16.7303 h 3.2 3.2 l 0.0768,8 c 0.0422,4.4 -0.0298,12.104 -0.16,17.12 l -0.2368,9.12 -3.12557,0.092 c -2.54598,0.075 -3.15984,0 -3.3103,-0.3897 z m -177.25858,-0.5842 c -0.0849,-0.2212 -0.11639,-5.2252 -0.07,-11.12 l 0.0844,-10.7177 h 3.2 3.2 l 0.0923,1.12 c 0.16711,2.0271 0.28535,2.0809 1.81574,0.8269 4.0488,-3.3177 7.64259,-3.2054 10.66742,0.3334 l 1.28407,1.5022 1.71021,-1.4992 c 2.288,-2.0057 3.92853,-2.7633 5.984,-2.7633 2.05912,0 3.78617,0.8292 5.14627,2.4707 1.74798,2.1097 1.96188,3.5165 1.86578,12.2712 l -0.0858,7.8181 -2.8508,0.093 c -1.75587,0.057 -2.98492,-0.041 -3.2,-0.2558 -0.22409,-0.224 -0.36709,-2.5323 -0.39915,-6.4429 -0.0601,-7.3359 -0.16365,-7.9934 -1.42549,-9.0552 -1.68669,-1.4192 -4.08176,-0.8796 -5.37368,1.2108 -0.62267,1.0074 -0.67089,1.5457 -0.67089,7.4885 0,5.1004 -0.0912,6.4788 -0.44836,6.7752 -0.28699,0.2382 -1.46739,0.3387 -3.27999,0.2792 l -2.83164,-0.093 -0.16,-6.88 c -0.16918,-7.2748 -0.25943,-7.7225 -1.80113,-8.9352 -1.05702,-0.8315 -2.2213,-0.8439 -3.54333,-0.038 -1.97241,1.2027 -2.164,1.9907 -2.2787,9.373 l -0.10317,6.64 h -3.18687 c -2.26392,0 -3.23158,-0.1166 -3.34124,-0.4023 z m 61.66154,-0.1577 c -0.16249,-0.308 -0.97485,-3.44 -1.80526,-6.96 -0.8304,-3.52 -2.56505,-10.7851 -3.85476,-16.1446 -1.28971,-5.3596 -2.27391,-9.8596 -2.18711,-10 0.0868,-0.1405 1.52088,-0.2554 3.18685,-0.2554 2.85133,0 3.04419,0.042 3.2874,0.72 0.1421,0.396 1.32001,5.2222 2.61757,10.7249 1.38714,5.8825 2.49703,9.9599 2.69371,9.896 0.18398,-0.06 1.44435,-4.562 2.80081,-10.0048 1.35647,-5.4429 2.54721,-10.2201 2.6461,-10.6161 0.16625,-0.6657 0.35853,-0.72 2.55213,-0.72 1.98437,0 2.39881,0.092 2.53422,0.56 0.089,0.308 0.38177,1.496 0.65053,2.64 2.08808,8.8882 4.43933,18.1292 4.67309,18.3663 0.16431,0.1667 0.3802,-0.1007 0.51678,-0.64 0.12902,-0.5095 1.33137,-5.3903 2.6719,-10.8463 l 2.43732,-9.92 2.99713,-0.093 c 1.64842,-0.051 3.11099,0.021 3.25016,0.1604 0.13916,0.1391 -0.96551,5.2208 -2.45482,11.2926 -1.48932,6.0719 -3.20449,13.1277 -3.81149,15.6797 -0.60699,2.552 -1.22778,5.072 -1.37951,5.6 l -0.27588,0.96 h -3.47467 -3.47467 l -2.26952,-9.3776 c -1.24824,-5.1577 -2.41028,-9.4057 -2.58231,-9.44 -0.17203,-0.034 -1.32388,3.9696 -2.55966,8.8976 -1.23579,4.928 -2.34727,9.212 -2.46996,9.52 -0.19166,0.4811 -0.67372,0.56 -3.42187,0.56 -2.72058,0 -3.24295,-0.084 -3.49421,-0.56 z m 36.90415,0.1717 c -0.0867,-0.2264 -0.12019,-7.9717 -0.0744,-17.2117 l 0.0832,-16.79999 3.17356,-0.0922 c 2.21335,-0.0643 3.24547,0.0241 3.41125,0.29238 0.13074,0.21151 0.15837,3.36401 0.0614,7.00551 -0.11984,4.5001 -0.0677,6.688 0.16285,6.8305 0.18653,0.1153 1.0348,-0.2216 1.88504,-0.7485 4.42279,-2.7412 9.35119,-1.4642 11.3405,2.9384 0.7429,1.6442 0.7654,1.9338 0.7654,9.8539 v 8.16 h -3.2 -3.2 l -0.16,-6.88 c -0.17939,-7.7137 -0.38977,-8.5458 -2.40336,-9.506 -0.92999,-0.4435 -1.29255,-0.4626 -2.41284,-0.1269 -1.1149,0.334 -1.42425,0.6264 -2.0043,1.894 -0.6077,1.328 -0.70494,2.247 -0.85271,8.0589 l -0.16679,6.56 -3.12557,0.092 c -2.32087,0.068 -3.16615,-0.014 -3.28319,-0.32 z"
         id="path44"
         inkscape:connector-curvature="0"
         sodipodi:nodetypes="ccccccsscsccccsccccccscccssssscsscccccsccsccccccccssscccccsccsccscscsssssssccsccsscccsscccccccccssccccccccscccccccscssccsscscscssscccscsccssssscccccccccsccsssscsccccccccccsccccccccccscccsccsccccccscccccccccccccscccccccccccccccccccccccccccscccccccsccccccsscccccccccccccssccccccccccccccccccccccssccccccccscccsccscsccccccscccccsccccscccccccccscccscccccccccccscccscccscccc" />
      <path
         style="fill:#f79b25;fill-opacity:1;stroke-width:0.31999999"
         d="m 341.13561,78.164958 c -2.38093,-0.64928 -3.57789,-1.35727 -4.51163,-2.66857 -0.91209,-1.28093 -1.12281,-3.86575 -0.48904,-5.9991 0.61555,-2.07202 2.68642,-5.99557 4.32615,-8.19649 0.65562,-0.88 2.038,-2.752 3.07196,-4.16 1.03395,-1.408 3.0727,-4.072 4.53055,-5.92 3.15296,-3.99676 6.86472,-9.01548 9.53497,-12.89232 1.06537,-1.54678 2.47704,-3.56278 3.13705,-4.48 0.66,-0.91723 1.72419,-2.45968 2.36485,-3.42768 1.55046,-2.34261 4.44974,-6.24401 5.85821,-7.88305 0.62531,-0.72767 1.52502,-1.95167 1.99936,-2.72 0.47434,-0.76832 1.84234,-2.60048 3.04,-4.07146 1.19766,-1.47098 2.60957,-3.2234 3.13757,-3.89427 3.43353,-4.3625695 5.24948,-6.4047395 9.16661,-10.3084695 4.88188,-4.86518 7.33075,-6.6512 9.44674,-6.8897 1.58902,-0.1791 2.19033,0.18533 2.45027,1.48501 0.20872,1.04363 -0.50273,4.75859998 -1.15779,6.04554 -0.24534,0.48202 -1.97857,3.9724 -3.85162,7.7564 -1.87305,3.7839995 -3.61698,7.2399995 -3.87541,7.6799995 -0.74391,1.26659 -2.55167,5.25671 -4.34937,9.6 -4.95201,11.9642 -4.45443,20.10806 1.49552,24.47681 5.04617,3.70516 12.95873,5.50657 27.31505,6.21867 15.40336,0.76405 18.62443,1.13401 21.12318,2.42616 1.7447,0.90222 2.06278,2.43552 0.81328,3.92046 -1.6624,1.97565 -6.17012,3.72705 -13.77646,5.35264 -2.112,0.45137 -4.344,0.95321 -4.96,1.11522 -1.83721,0.48317 -14.1049,2.1772 -20.8,2.87224 -10.90141,1.13171 -12.514,1.28703 -18.56,1.78762 -3.256,0.26959 -6.496,0.56103 -7.2,0.64764 -4.24838,0.5227 -11.67744,1.49311 -14.56,1.90188 -1.848,0.26207 -5.448,0.54749 -8,0.63426 -3.80254,0.12931 -5.01541,0.0554 -6.72,-0.40944 z m 56.16,-27.84718 c -2.70702,-0.81609 -3.89809,-1.50969 -5.60925,-3.26648 -1.67371,-1.71833 -2.58981,-3.45393 -3.32921,-6.30738 -0.63052,-2.43324 -0.62956,-3.49423 0.005,-5.95693 1.43769,-5.57614 4.93297,-8.90846 10.44591,-9.95891 3.22449,-0.6144 5.79,-0.18862 8.76769,1.4551 2.69629,1.48839 4.1073,2.99637 5.55471,5.93649 3.32613,6.75631 -0.19543,15.32366 -7.35525,17.89412 -2.22769,0.79976 -6.18779,0.89502 -8.48,0.20399 z"
         id="path42-5"
         inkscape:connector-curvature="0"
         sodipodi:nodetypes="ccsccscccccscscccscscsccccscccccccccsccccc" />
      <path
         style="fill:#47c51e;fill-opacity:1;stroke-width:0.31999999"
         d="m 337.56418,201.0221 c -2.38093,-0.64928 -3.57789,-1.35727 -4.51163,-2.66857 -0.91209,-1.28093 -1.12281,-3.86575 -0.48904,-5.9991 0.61555,-2.07202 2.68642,-5.99557 4.32615,-8.19649 0.65562,-0.88 2.038,-2.752 3.07196,-4.16 1.03395,-1.408 3.0727,-4.072 4.53055,-5.92 3.15296,-3.99676 6.86472,-9.01548 9.53497,-12.89232 1.06537,-1.54678 2.47704,-3.56278 3.13705,-4.48 0.66,-0.91723 1.72419,-2.45968 2.36485,-3.42768 1.55046,-2.34261 4.44974,-6.24401 5.85821,-7.88305 0.62531,-0.72767 1.52502,-1.95167 1.99936,-2.72 0.47434,-0.76832 1.84234,-2.60048 3.04,-4.07146 1.19766,-1.47098 2.60957,-3.2234 3.13757,-3.89427 3.43353,-4.36257 5.24948,-6.40474 9.16661,-10.30847 4.88188,-4.86518 7.33075,-6.6512 9.44674,-6.8897 1.58902,-0.1791 2.19033,0.18533 2.45027,1.48501 0.20872,1.04363 -0.50273,4.7586 -1.15779,6.04554 -0.24534,0.48202 -1.97857,3.9724 -3.85162,7.7564 -1.87305,3.784 -3.61698,7.24 -3.87541,7.68 -0.74391,1.26659 -2.55167,5.25671 -4.34937,9.6 -4.95201,11.9642 -4.45443,20.10806 1.49552,24.47681 5.04617,3.70516 12.95873,5.50657 27.31505,6.21867 15.40336,0.76405 18.62443,1.13401 21.12318,2.42616 1.7447,0.90222 2.06278,2.43552 0.81328,3.92046 -1.6624,1.97565 -6.17012,3.72705 -13.77646,5.35264 -2.112,0.45137 -4.344,0.95321 -4.96,1.11522 -1.83721,0.48317 -14.1049,2.1772 -20.8,2.87224 -10.90141,1.13171 -12.514,1.28703 -18.56,1.78762 -3.256,0.26959 -6.496,0.56103 -7.2,0.64764 -4.24838,0.5227 -11.67744,1.49311 -14.56,1.90188 -1.848,0.26207 -5.448,0.54749 -8,0.63426 -3.80254,0.12931 -5.01541,0.0554 -6.72,-0.40944 z m 56.16,-27.84718 c -2.70702,-0.81609 -3.89809,-1.50969 -5.60925,-3.26648 -1.67371,-1.71833 -2.58981,-3.45393 -3.32921,-6.30738 -0.63052,-2.43324 -0.62956,-3.49423 0.005,-5.95693 1.43769,-5.57614 4.93297,-8.90846 10.44591,-9.95891 3.22449,-0.6144 5.79,-0.18862 8.76769,1.4551 2.69629,1.48839 4.1073,2.99637 5.55471,5.93649 3.32613,6.75631 -0.19543,15.32366 -7.35525,17.89412 -2.22769,0.79976 -6.18779,0.89502 -8.48,0.20399 z"
         id="path42-5-3"
         inkscape:connector-curvature="0"
         sodipodi:nodetypes="ccsccscccccscscccscscsccccscccccccccsccccc" />
      <path
         style="fill:#d624c6;fill-opacity:1;stroke-width:0.31999999"
         d="m 472.56418,202.45068 c -2.38093,-0.64928 -3.57789,-1.35727 -4.51163,-2.66857 -0.91209,-1.28093 -1.12281,-3.86575 -0.48904,-5.9991 0.61555,-2.07202 2.68642,-5.99557 4.32615,-8.19649 0.65562,-0.88 2.038,-2.752 3.07196,-4.16 1.03395,-1.408 3.0727,-4.072 4.53055,-5.92 3.15296,-3.99676 6.86472,-9.01548 9.53497,-12.89232 1.06537,-1.54678 2.47704,-3.56278 3.13705,-4.48 0.66,-0.91723 1.72419,-2.45968 2.36485,-3.42768 1.55046,-2.34261 4.44974,-6.24401 5.85821,-7.88305 0.62531,-0.72767 1.52502,-1.95167 1.99936,-2.72 0.47434,-0.76832 1.84234,-2.60048 3.04,-4.07146 1.19766,-1.47098 2.60957,-3.2234 3.13757,-3.89427 3.43353,-4.36257 5.24948,-6.40474 9.16661,-10.30847 4.88188,-4.86518 7.33075,-6.6512 9.44674,-6.8897 1.58902,-0.1791 2.19033,0.18533 2.45027,1.48501 0.20872,1.04363 -0.50273,4.7586 -1.15779,6.04554 -0.24534,0.48202 -1.97857,3.9724 -3.85162,7.7564 -1.87305,3.784 -3.61698,7.24 -3.87541,7.68 -0.74391,1.26659 -2.55167,5.25671 -4.34937,9.6 -4.95201,11.9642 -4.45443,20.10806 1.49552,24.47681 5.04617,3.70516 12.95873,5.50657 27.31505,6.21867 15.40337,0.76405 18.62444,1.13401 21.12319,2.42616 1.7447,0.90222 2.06278,2.43552 0.81328,3.92046 -1.6624,1.97565 -6.17012,3.72705 -13.77647,5.35264 -2.112,0.45137 -4.344,0.95321 -4.96,1.11522 -1.83721,0.48317 -14.1049,2.1772 -20.8,2.87224 -10.90141,1.13171 -12.514,1.28703 -18.56,1.78762 -3.256,0.26959 -6.496,0.56103 -7.2,0.64764 -4.24838,0.5227 -11.67744,1.49311 -14.56,1.90188 -1.848,0.26207 -5.448,0.54749 -8,0.63426 -3.80254,0.12931 -5.01541,0.0554 -6.72,-0.40944 z m 56.16,-27.84718 c -2.70702,-0.81609 -3.89809,-1.50969 -5.60925,-3.26648 -1.67371,-1.71833 -2.58981,-3.45393 -3.32921,-6.30738 -0.63052,-2.43324 -0.62956,-3.49423 0.005,-5.95693 1.43769,-5.57614 4.93297,-8.90846 10.44591,-9.95891 3.22449,-0.6144 5.79,-0.18862 8.76769,1.4551 2.69629,1.48839 4.1073,2.99637 5.55471,5.93649 3.32613,6.75631 -0.19543,15.32366 -7.35525,17.89412 -2.22769,0.79976 -6.18779,0.89502 -8.48,0.20399 z"
         id="path42-5-3-4"
         inkscape:connector-curvature="0"
         sodipodi:nodetypes="ccsccscccccscscccscscsccccscccccccccsccccc" />
      <path
         style="fill:#7f44ff;fill-opacity:1;stroke-width:0.31999999"
         d="m 350.42133,310.30782 c -2.38093,-0.64928 -3.57789,-1.35727 -4.51163,-2.66857 -0.91209,-1.28093 -1.12281,-3.86575 -0.48904,-5.9991 0.61555,-2.07202 2.68642,-5.99557 4.32615,-8.19649 0.65562,-0.88 2.038,-2.752 3.07196,-4.16 1.03395,-1.408 3.0727,-4.072 4.53055,-5.92 3.15296,-3.99676 6.86472,-9.01548 9.53497,-12.89232 1.06537,-1.54678 2.47704,-3.56278 3.13705,-4.48 0.66,-0.91723 1.72419,-2.45968 2.36485,-3.42768 1.55046,-2.34261 4.44974,-6.24401 5.85821,-7.88305 0.62531,-0.72767 1.52502,-1.95167 1.99936,-2.72 0.47434,-0.76832 1.84234,-2.60048 3.04,-4.07146 1.19766,-1.47098 2.60957,-3.2234 3.13757,-3.89427 3.43353,-4.36257 5.24948,-6.40475 9.16661,-10.30848 4.88188,-4.86518 7.33075,-6.6512 9.44674,-6.8897 1.58902,-0.1791 2.19033,0.18533 2.45027,1.48501 0.20872,1.04363 -0.50273,4.7586 -1.15779,6.04554 -0.24534,0.48202 -1.97857,3.97241 -3.85162,7.75641 -1.87305,3.784 -3.61698,7.24 -3.87541,7.68 -0.74391,1.26659 -2.55167,5.25671 -4.34937,9.6 -4.95201,11.9642 -4.45443,20.10806 1.49552,24.47681 5.04617,3.70516 12.95873,5.50657 27.31505,6.21867 15.40336,0.76405 18.62443,1.13401 21.12318,2.42616 1.7447,0.90222 2.06278,2.43552 0.81328,3.92046 -1.6624,1.97565 -6.17012,3.72705 -13.77646,5.35264 -2.112,0.45137 -4.344,0.95321 -4.96,1.11522 -1.83721,0.48317 -14.1049,2.1772 -20.8,2.87224 -10.90141,1.13171 -12.514,1.28703 -18.56,1.78762 -3.256,0.26959 -6.496,0.56103 -7.2,0.64764 -4.24838,0.5227 -11.67744,1.49311 -14.56,1.90188 -1.848,0.26207 -5.448,0.54749 -8,0.63426 -3.80254,0.12931 -5.01541,0.0554 -6.72,-0.40944 z m 56.16,-27.84718 c -2.70702,-0.81609 -3.89809,-1.50969 -5.60925,-3.26648 -1.67371,-1.71833 -2.58981,-3.45393 -3.32921,-6.30738 -0.63052,-2.43324 -0.62956,-3.49423 0.005,-5.95693 1.43769,-5.57614 4.93297,-8.90846 10.44591,-9.95891 3.22449,-0.6144 5.79,-0.18862 8.76769,1.4551 2.69629,1.48839 4.1073,2.99637 5.55471,5.93649 3.32613,6.75631 -0.19543,15.32366 -7.35525,17.89412 -2.22769,0.79976 -6.18779,0.89502 -8.48,0.20399 z"
         id="path42-5-3-48"
         inkscape:connector-curvature="0"
         sodipodi:nodetypes="ccsccscccccscscccscscsccccscccccccccsccccc" />
      <path
         style="fill:#2c85ff;fill-opacity:1;stroke-width:0.31999999"
         d="m 472.56418,313.87925 c -2.38093,-0.64928 -3.57789,-1.35727 -4.51163,-2.66857 -0.91209,-1.28093 -1.12281,-3.86575 -0.48904,-5.9991 0.61555,-2.07202 2.68642,-5.99557 4.32615,-8.19649 0.65562,-0.88 2.038,-2.752 3.07196,-4.16 1.03395,-1.408 3.0727,-4.072 4.53055,-5.92 3.15296,-3.99676 6.86472,-9.01548 9.53497,-12.89232 1.06537,-1.54678 2.47704,-3.56278 3.13705,-4.48 0.66,-0.91723 1.72419,-2.45968 2.36485,-3.42768 1.55046,-2.34261 4.44974,-6.24401 5.85821,-7.88305 0.62531,-0.72767 1.52502,-1.95167 1.99936,-2.72 0.47434,-0.76832 1.84234,-2.60048 3.04,-4.07146 1.19766,-1.47098 2.60957,-3.2234 3.13757,-3.89427 3.43353,-4.36257 5.24948,-6.40474 9.16661,-10.30847 4.88188,-4.86518 7.33075,-6.6512 9.44674,-6.8897 1.58902,-0.1791 2.19033,0.18533 2.45027,1.48501 0.20872,1.04363 -0.50273,4.7586 -1.15779,6.04554 -0.24534,0.48202 -1.97857,3.9724 -3.85162,7.7564 -1.87305,3.784 -3.61698,7.24 -3.87541,7.68 -0.74391,1.26659 -2.55167,5.25671 -4.34937,9.6 -4.95201,11.9642 -4.45443,20.10806 1.49552,24.47681 5.04617,3.70516 12.95873,5.50657 27.31505,6.21867 15.40336,0.76405 18.62443,1.13401 21.12318,2.42616 1.74471,0.90222 2.06279,2.43552 0.81328,3.92046 -1.6624,1.97565 -6.17012,3.72705 -13.77646,5.35264 -2.112,0.45137 -4.344,0.95321 -4.96,1.11522 -1.83721,0.48317 -14.1049,2.1772 -20.8,2.87224 -10.90141,1.13171 -12.514,1.28703 -18.56,1.78762 -3.256,0.26959 -6.496,0.56103 -7.2,0.64764 -4.24838,0.5227 -11.67744,1.49311 -14.56,1.90188 -1.848,0.26207 -5.448,0.54749 -8,0.63426 -3.80254,0.12931 -5.01541,0.0554 -6.72,-0.40944 z m 56.16,-27.84718 c -2.70702,-0.81609 -3.89809,-1.50969 -5.60925,-3.26648 -1.67371,-1.71833 -2.58981,-3.45393 -3.32921,-6.30738 -0.63052,-2.43324 -0.62956,-3.49423 0.005,-5.95693 1.43769,-5.57614 4.93297,-8.90846 10.44591,-9.95891 3.22449,-0.6144 5.79,-0.18862 8.76769,1.4551 2.69629,1.48839 4.1073,2.99637 5.55471,5.93649 3.32613,6.75631 -0.19543,15.32366 -7.35525,17.89412 -2.22769,0.79976 -6.18779,0.89502 -8.48,0.20399 z"
         id="path42-5-9"
         inkscape:connector-curvature="0"
         sodipodi:nodetypes="ccsccscccccscscccscscsccccscccccccccsccccc" />
    </g>
  </g>
</svg>
